<svg width="149" height="42" viewBox="0 0 149 42" fill="none" xmlns="http://www.w3.org/2000/svg">
<path d="M49.1909 29.9535C47.5569 29.9535 46.1295 29.5878 44.9275 28.8371C43.7254 28.0864 42.8051 27.047 42.1478 25.6804C41.4904 24.3137 41.1711 22.6969 41.1711 20.8298C41.1711 18.9434 41.5092 17.3266 42.2041 15.9792C42.899 14.6126 43.8569 13.5731 45.0965 12.8225C46.3361 12.0718 47.7635 11.7061 49.3599 11.7061C51.069 11.7061 52.4589 12.0333 53.5294 12.707C54.6 13.3614 55.4639 14.3816 56.1401 15.7675L54.2619 16.8261C53.8863 15.806 53.2665 15.036 52.4401 14.4971C51.6137 13.9774 50.5995 13.7079 49.3975 13.7079C48.233 13.7079 47.2 13.9966 46.2985 14.5548C45.397 15.113 44.6833 15.9407 44.1762 16.9994C43.6691 18.058 43.4061 19.3477 43.4061 20.8298C43.4061 22.3119 43.6315 23.5823 44.0823 24.6602C44.533 25.7189 45.1904 26.5466 46.0731 27.1048C46.9559 27.663 48.0264 27.9517 49.3036 27.9517C50.0173 27.9517 50.6934 27.8554 51.3132 27.663C51.933 27.4705 52.4776 27.201 52.9284 26.816C53.3979 26.4311 53.7548 25.9691 54.0177 25.3917C54.2807 24.8142 54.4121 24.1405 54.4121 23.3706V22.7546H48.9091V20.7335H56.3279V29.6648H54.6375L54.5248 26.3541L54.9756 26.4311C54.5248 27.5475 53.8111 28.3944 52.8345 29.0103C51.8579 29.6648 50.6558 29.9535 49.1909 29.9535Z" fill="white"/>
<path d="M61.4742 10.0889V26.2768C61.4742 26.9505 61.5869 27.4317 61.8498 27.6819C62.094 27.9321 62.4884 28.0669 63.0331 28.0669C63.3899 28.0669 63.6716 28.0476 63.897 27.9899C64.1224 27.9321 64.4229 27.8359 64.8173 27.7011L64.4792 29.5875C64.1975 29.703 63.897 29.7992 63.5589 29.8762C63.2209 29.934 62.8828 29.9725 62.5447 29.9725C61.4742 29.9725 60.6854 29.6837 60.1783 29.087C59.6711 28.4903 59.4082 27.5857 59.4082 26.373V10.0889H61.4742Z" fill="white"/>
<path d="M71.616 15.998C72.8556 15.998 73.9449 16.2675 74.9028 16.8257C75.8606 17.3839 76.5931 18.1731 77.1378 19.2318C77.6824 20.2712 77.9454 21.5223 77.9454 22.9852C77.9454 24.4288 77.6824 25.68 77.1378 26.7387C76.5931 27.7781 75.8419 28.5865 74.9028 29.1447C73.9449 29.7029 72.8556 29.9724 71.616 29.9724C70.3952 29.9724 69.3059 29.7029 68.348 29.1447C67.3902 28.5865 66.6389 27.7973 66.0942 26.7387C65.5496 25.6992 65.2866 24.4481 65.2866 22.9852C65.2866 21.5416 65.5496 20.2904 66.0942 19.2318C66.6389 18.1924 67.3902 17.3839 68.348 16.8257C69.3059 16.2868 70.3952 15.998 71.616 15.998ZM71.616 17.8459C70.7333 17.8459 69.9632 18.0576 69.3434 18.4618C68.7236 18.8661 68.2353 19.4628 67.8973 20.2134C67.5592 20.9834 67.3902 21.8881 67.3902 22.966C67.3902 24.0246 67.5592 24.9293 67.8973 25.6992C68.2353 26.4692 68.7236 27.0659 69.3434 27.4701C69.9632 27.8743 70.7333 28.086 71.616 28.086C72.4987 28.086 73.2688 27.8743 73.8886 27.4701C74.5084 27.0659 74.9967 26.4692 75.3348 25.6992C75.6728 24.9293 75.8419 24.0246 75.8419 22.966C75.8419 21.8881 75.6728 20.9834 75.3348 20.2134C74.9967 19.4628 74.5084 18.8661 73.8886 18.4618C73.2688 18.0576 72.5175 17.8459 71.616 17.8459Z" fill="white"/>
<path d="M87.0168 29.9532C86.2843 29.9532 85.6082 29.8185 84.9696 29.549C84.3498 29.2795 83.8052 28.9138 83.3544 28.4133C82.9036 27.9321 82.5656 27.3932 82.3402 26.7772L82.6219 26.3922L82.4341 29.6645H80.5935V10.0889H82.697V19.2896L82.4341 18.8854C82.7909 18.0384 83.3732 17.3455 84.1996 16.8066C85.026 16.2676 85.9838 15.9789 87.0356 15.9789C88.1249 15.9789 89.1203 16.2484 90.0218 16.8066C90.9234 17.3648 91.6558 18.1539 92.2005 19.1934C92.7452 20.2328 93.0081 21.4839 93.0081 22.9468C93.0081 24.3904 92.7264 25.6416 92.1817 26.7002C91.6371 27.7396 90.9046 28.5481 90.0031 29.1063C89.1016 29.6837 88.1061 29.9532 87.0168 29.9532ZM86.8102 28.0861C88.1061 28.0861 89.1016 27.6241 89.834 26.681C90.5665 25.7571 90.9234 24.5252 90.9234 22.9853C90.9234 21.4454 90.5665 20.2135 89.8528 19.2896C89.1391 18.3657 88.1249 17.9037 86.8478 17.9037C86.0214 17.9037 85.3077 18.1154 84.6879 18.5389C84.0681 18.9624 83.5798 19.5591 83.2417 20.329C82.8849 21.0989 82.7158 22.0036 82.7158 23.043C82.7158 24.0632 82.8849 24.9486 83.2229 25.7186C83.561 26.4885 84.0493 27.0659 84.6691 27.4702C85.2701 27.8744 85.9838 28.0861 86.8102 28.0861Z" fill="white"/>
<path d="M103.357 21.0216C103.357 20.0207 103.094 19.2507 102.568 18.6925C102.042 18.1536 101.31 17.8649 100.333 17.8649C99.4316 17.8649 98.6615 18.0573 98.023 18.4616C97.4032 18.8658 96.9336 19.5202 96.6331 20.4056L94.924 19.3277C95.2809 18.3268 95.9194 17.5184 96.8585 16.9024C97.7976 16.2865 98.962 15.9785 100.371 15.9785C101.31 15.9785 102.174 16.1518 102.944 16.479C103.714 16.8062 104.315 17.3067 104.766 17.9803C105.216 18.654 105.442 19.5202 105.442 20.5789V27.0656C105.442 27.7008 105.78 28.028 106.437 28.028C106.775 28.028 107.094 27.9895 107.414 27.8933L107.301 29.5871C106.944 29.7604 106.493 29.8566 105.93 29.8566C105.423 29.8566 104.972 29.7604 104.559 29.5679C104.165 29.3754 103.845 29.0674 103.62 28.6632C103.394 28.259 103.282 27.7585 103.282 27.1426V26.8731L103.808 26.9501C103.601 27.643 103.244 28.2205 102.737 28.6632C102.23 29.1059 101.667 29.4331 101.028 29.6256C100.408 29.8374 99.7884 29.9336 99.1686 29.9336C98.3986 29.9336 97.6849 29.7989 97.0276 29.5294C96.3702 29.2599 95.8443 28.8557 95.4499 28.3167C95.0555 27.7778 94.8677 27.1041 94.8677 26.2957C94.8677 25.2947 95.187 24.4671 95.8443 23.8126C96.5017 23.1582 97.4032 22.7155 98.5864 22.4845L103.77 21.4451V23.2159L99.5443 24.1013C98.6803 24.2746 98.0605 24.5248 97.6286 24.852C97.2154 25.1792 97.0088 25.622 97.0088 26.1994C97.0088 26.7576 97.2154 27.2003 97.6473 27.5468C98.0793 27.8933 98.6803 28.0665 99.4692 28.0665C99.9763 28.0665 100.465 28.0088 100.915 27.874C101.385 27.7393 101.798 27.5276 102.155 27.2581C102.531 26.9886 102.812 26.6229 103.019 26.2187C103.225 25.7952 103.338 25.2947 103.338 24.7365V21.0216H103.357Z" fill="white"/>
<path d="M111.226 10.0889V26.2768C111.226 26.9505 111.339 27.4317 111.602 27.6819C111.846 27.9321 112.241 28.0669 112.785 28.0669C113.142 28.0669 113.424 28.0476 113.649 27.9899C113.875 27.9321 114.175 27.8359 114.569 27.7011L114.231 29.5875C113.95 29.703 113.649 29.7992 113.311 29.8762C112.973 29.934 112.635 29.9725 112.297 29.9725C111.226 29.9725 110.438 29.6837 109.93 29.087C109.423 28.4903 109.16 27.5857 109.16 26.373V10.0889H111.226Z" fill="white"/>
<path d="M126.045 16.2673L119.885 31.9547C119.547 32.8402 119.19 33.5331 118.795 34.0336C118.401 34.534 117.969 34.919 117.481 35.1307C116.992 35.3617 116.448 35.4579 115.809 35.4579C115.208 35.4579 114.663 35.3809 114.175 35.2077C113.687 35.0345 113.236 34.8035 112.86 34.5148L113.443 32.6284C113.799 32.9556 114.156 33.1866 114.551 33.3406C114.945 33.4946 115.34 33.5716 115.715 33.5716C116.166 33.5716 116.598 33.4369 116.992 33.1481C117.387 32.8594 117.762 32.282 118.1 31.3965L118.777 29.6449L117.462 26.4497L113.292 16.248H115.678L118.946 25.0061L119.753 27.3929L120.692 24.7366L123.754 16.248H126.045V16.2673Z" fill="white"/>
<path d="M127.491 28.2402C127.735 28.2402 127.923 28.3172 128.073 28.4712C128.205 28.6252 128.28 28.8177 128.28 29.0487C128.28 29.2796 128.205 29.4721 128.073 29.6261C127.942 29.7801 127.735 29.8571 127.491 29.8571C127.266 29.8571 127.078 29.7801 126.928 29.6261C126.778 29.4721 126.702 29.2796 126.702 29.0487C126.702 28.7984 126.778 28.606 126.928 28.452C127.078 28.3172 127.266 28.2402 127.491 28.2402Z" fill="white"/>
<path d="M131.229 13.6307C131.003 13.6307 130.816 13.5537 130.684 13.419C130.553 13.2842 130.478 13.0917 130.478 12.8608C130.478 12.6298 130.553 12.4373 130.684 12.3026C130.816 12.1678 131.022 12.0908 131.266 12.0908C131.492 12.0908 131.68 12.1678 131.811 12.3026C131.943 12.4373 132.018 12.6298 132.018 12.8608C132.018 13.0917 131.943 13.2842 131.811 13.419C131.68 13.5729 131.473 13.6307 131.229 13.6307ZM131.623 16.2677V29.6838H130.891V16.2677H131.623Z" fill="white"/>
<path d="M140.094 15.998C141.315 15.998 142.385 16.2675 143.324 16.8257C144.244 17.3839 144.977 18.1731 145.503 19.2318C146.029 20.2904 146.292 21.5223 146.292 22.9852C146.292 24.4288 146.029 25.68 145.503 26.7387C144.977 27.7973 144.263 28.5865 143.324 29.1447C142.404 29.7029 141.333 29.9724 140.094 29.9724C138.91 29.9724 137.859 29.7029 136.92 29.1447C135.999 28.5865 135.267 27.7973 134.741 26.7387C134.215 25.6992 133.933 24.4481 133.933 22.9852C133.933 21.5416 134.196 20.2904 134.741 19.2318C135.267 18.1924 135.999 17.3839 136.92 16.8257C137.84 16.2868 138.892 15.998 140.094 15.998ZM140.112 16.6525C139.023 16.6525 138.084 16.9027 137.276 17.4224C136.469 17.9229 135.83 18.6543 135.361 19.5975C134.891 20.5407 134.666 21.6763 134.666 22.9852C134.666 24.2941 134.891 25.4105 135.361 26.3729C135.83 27.3161 136.469 28.0475 137.276 28.5672C138.084 29.0677 139.042 29.3372 140.112 29.3372C141.183 29.3372 142.122 29.087 142.949 28.5672C143.775 28.0668 144.413 27.3354 144.864 26.3729C145.315 25.4298 145.54 24.2941 145.54 22.9852C145.54 21.6571 145.315 20.5214 144.864 19.5975C144.413 18.6543 143.775 17.9421 142.949 17.4224C142.122 16.9027 141.183 16.6525 140.112 16.6525Z" fill="white"/>
<path d="M11.5825 37.2291C9.72316 36.3245 7.97647 35.0733 6.43639 33.4949C-0.681829 26.1998 -0.832081 14.4775 6.1171 7.35562C9.9861 3.39045 15.2825 1.48486 20.6353 2.12006L22.1378 2.29329C23.0581 2.40878 23.4337 3.54444 22.7951 4.21813L12.916 14.3235C12.916 14.3235 0.576536 25.9496 11.5825 37.2291Z" fill="url(#paint0_linear)"/>
<path d="M31.6977 7.58683C35.1723 11.1478 37.1068 15.8251 37.1631 20.772C37.2195 25.7381 35.3789 30.3769 31.9794 33.8609C26.5328 39.4429 18.3252 40.5401 11.5827 37.2294C0.576668 25.9498 12.9161 14.3238 12.9161 14.3238C10.3055 16.9993 9.79841 21.0607 11.6578 24.4484L11.6953 24.5447C11.8832 24.8334 12.071 25.1221 12.2776 25.3916C13.5359 27.047 15.0197 28.0286 15.1887 28.1249C18.2125 29.838 21.7435 29.6455 24.2978 27.6822C24.2978 27.6822 24.3166 27.6629 24.3729 27.6244C24.3917 27.6052 24.4105 27.5859 24.4292 27.5667C24.5044 27.5089 24.5983 27.4319 24.6734 27.3742C24.6922 27.3549 24.711 27.3357 24.7297 27.3164C24.7485 27.2972 24.7673 27.2779 24.7861 27.2587C26.9084 25.4108 34.9657 17.4997 30.5145 6.45117C30.8901 6.79764 31.2845 7.16336 31.6977 7.58683Z" fill="url(#paint1_linear)"/>
<path d="M30.5143 6.47016C34.9655 17.5187 26.9082 25.4298 24.7859 27.2777C24.9174 27.1622 25.0489 27.0275 25.1803 26.912C27.0209 25.0256 27.8285 22.2731 27.4717 19.6361C27.4341 19.3666 27.0961 19.2319 26.9082 19.4436L22.9453 23.4857C22.72 23.7167 22.457 23.9285 22.1941 24.1017C20.3535 25.2951 17.8931 25.0834 16.2967 23.428C15.6017 22.7158 15.1698 21.8304 14.9819 20.9065C14.7002 19.3858 15.1322 17.7497 16.2967 16.5563L26.8895 5.70023C27.4905 5.08428 28.4296 4.96879 29.162 5.43075C29.5564 5.68098 29.9696 5.98895 30.3828 6.33542C30.4204 6.37392 30.4767 6.43167 30.5143 6.47016Z" fill="url(#paint2_linear)"/>
<defs>
<linearGradient id="paint0_linear" x1="18.8905" y1="7.54485" x2="3.97526" y2="28.086" gradientUnits="userSpaceOnUse">
<stop stop-color="white"/>
<stop offset="1" stop-color="#A19FA0"/>
</linearGradient>
<linearGradient id="paint1_linear" x1="12.7116" y1="28.1496" x2="35.7032" y2="19.7267" gradientUnits="userSpaceOnUse">
<stop stop-color="white"/>
<stop offset="1" stop-color="#A19FA0"/>
</linearGradient>
<linearGradient id="paint2_linear" x1="35.4944" y1="12.781" x2="12.5096" y2="20.9584" gradientUnits="userSpaceOnUse">
<stop stop-color="white"/>
<stop offset="1" stop-color="#A19FA0"/>
</linearGradient>
</defs>
</svg>
