<svg width="589" height="281" viewBox="0 0 589 281" fill="none" xmlns="http://www.w3.org/2000/svg">
<circle cx="5.76405" cy="5.1391" r="4.13536" transform="rotate(0.340307 5.76405 5.1391)" fill="#FAFAFA"/>
<circle cx="20.6495" cy="5.22919" r="4.13536" transform="rotate(0.340307 20.6495 5.22919)" fill="#FAFAFA"/>
<circle cx="35.5353" cy="5.31781" r="4.13536" transform="rotate(0.340307 35.5353 5.31781)" fill="#FAFAFA"/>
<circle cx="50.4203" cy="5.40619" r="4.13536" transform="rotate(0.340307 50.4203 5.40619)" fill="#FAFAFA"/>
<circle cx="65.3048" cy="5.49457" r="4.13536" transform="rotate(0.340307 65.3048 5.49457)" fill="#FAFAFA"/>
<circle cx="80.1901" cy="5.58319" r="4.13536" transform="rotate(0.340307 80.1901 5.58319)" fill="#FAFAFA"/>
<circle cx="95.0761" cy="5.67132" r="4.13536" transform="rotate(0.340307 95.0761 5.67132)" fill="#FAFAFA"/>
<circle cx="109.96" cy="5.7597" r="4.13536" transform="rotate(0.340307 109.96 5.7597)" fill="#FAFAFA"/>
<circle cx="124.847" cy="5.84833" r="4.13536" transform="rotate(0.340307 124.847 5.84833)" fill="#FAFAFA"/>
<circle cx="139.731" cy="5.93671" r="4.13536" transform="rotate(0.340307 139.731 5.93671)" fill="#FAFAFA"/>
<circle cx="154.617" cy="6.02508" r="4.13536" transform="rotate(0.340307 154.617 6.02508)" fill="#FAFAFA"/>
<circle cx="169.502" cy="6.11346" r="4.13536" transform="rotate(0.340307 169.502 6.11346)" fill="#FAFAFA"/>
<circle cx="184.388" cy="6.20184" r="4.13536" transform="rotate(0.340307 184.388 6.20184)" fill="#FAFAFA"/>
<circle cx="199.272" cy="6.29022" r="4.13536" transform="rotate(0.340307 199.272 6.29022)" fill="#FAFAFA"/>
<circle cx="214.158" cy="6.37884" r="4.13536" transform="rotate(0.340307 214.158 6.37884)" fill="#FAFAFA"/>
<circle cx="229.043" cy="6.46722" r="4.13536" transform="rotate(0.340307 229.043 6.46722)" fill="#FAFAFA"/>
<circle cx="243.929" cy="6.5556" r="4.13536" transform="rotate(0.340307 243.929 6.5556)" fill="#FAFAFA"/>
<circle cx="258.814" cy="6.64398" r="4.13536" transform="rotate(0.340307 258.814 6.64398)" fill="#FAFAFA"/>
<circle cx="273.699" cy="6.73236" r="4.13536" transform="rotate(0.340307 273.699 6.73236)" fill="#FAFAFA"/>
<circle cx="288.584" cy="6.82098" r="4.13536" transform="rotate(0.340307 288.584 6.82098)" fill="#FAFAFA"/>
<circle cx="5.67518" cy="20.0265" r="4.13536" transform="rotate(0.340307 5.67518 20.0265)" fill="#FAFAFA"/>
<circle cx="20.5609" cy="20.1147" r="4.13536" transform="rotate(0.340307 20.5609 20.1147)" fill="#FAFAFA"/>
<circle cx="35.4464" cy="20.2031" r="4.13536" transform="rotate(0.340307 35.4464 20.2031)" fill="#FAFAFA"/>
<circle cx="50.3317" cy="20.2917" r="4.13536" transform="rotate(0.340307 50.3317 20.2917)" fill="#FAFAFA"/>
<circle cx="65.2169" cy="20.3798" r="4.13536" transform="rotate(0.340307 65.2169 20.3798)" fill="#FAFAFA"/>
<circle cx="80.1014" cy="20.4682" r="4.13536" transform="rotate(0.340307 80.1014 20.4682)" fill="#FAFAFA"/>
<circle cx="94.9872" cy="20.5566" r="4.13536" transform="rotate(0.340307 94.9872 20.5566)" fill="#FAFAFA"/>
<circle cx="109.872" cy="20.645" r="4.13536" transform="rotate(0.340307 109.872 20.645)" fill="#FAFAFA"/>
<circle cx="124.758" cy="20.7336" r="4.13536" transform="rotate(0.340307 124.758 20.7336)" fill="#FAFAFA"/>
<circle cx="139.643" cy="20.8217" r="4.13536" transform="rotate(0.340307 139.643 20.8217)" fill="#FAFAFA"/>
<circle cx="154.528" cy="20.9103" r="4.13536" transform="rotate(0.340307 154.528 20.9103)" fill="#FAFAFA"/>
<circle cx="169.413" cy="20.9987" r="4.13536" transform="rotate(0.340307 169.413 20.9987)" fill="#FAFAFA"/>
<circle cx="184.299" cy="21.0871" r="4.13536" transform="rotate(0.340307 184.299 21.0871)" fill="#FAFAFA"/>
<circle cx="199.184" cy="21.1757" r="4.13536" transform="rotate(0.340307 199.184 21.1757)" fill="#FAFAFA"/>
<circle cx="214.069" cy="21.2639" r="4.13536" transform="rotate(0.340307 214.069 21.2639)" fill="#FAFAFA"/>
<circle cx="228.955" cy="21.3522" r="4.13536" transform="rotate(0.340307 228.955 21.3522)" fill="#FAFAFA"/>
<circle cx="243.84" cy="21.4409" r="4.13536" transform="rotate(0.340307 243.84 21.4409)" fill="#FAFAFA"/>
<circle cx="258.725" cy="21.529" r="4.13536" transform="rotate(0.340307 258.725 21.529)" fill="#FAFAFA"/>
<circle cx="273.611" cy="21.6176" r="4.13536" transform="rotate(0.340307 273.611 21.6176)" fill="#FAFAFA"/>
<circle cx="288.495" cy="21.706" r="4.13536" transform="rotate(0.340307 288.495 21.706)" fill="#FAFAFA"/>
<circle cx="5.58704" cy="34.9123" r="4.13536" transform="rotate(0.340307 5.58704 34.9123)" fill="#FAFAFA"/>
<circle cx="20.4725" cy="35.0004" r="4.13536" transform="rotate(0.340307 20.4725 35.0004)" fill="#FAFAFA"/>
<circle cx="35.3583" cy="35.0888" r="4.13536" transform="rotate(0.340307 35.3583 35.0888)" fill="#FAFAFA"/>
<circle cx="50.2435" cy="35.1772" r="4.13536" transform="rotate(0.340307 50.2435 35.1772)" fill="#FAFAFA"/>
<circle cx="65.1283" cy="35.2653" r="4.13536" transform="rotate(0.340307 65.1283 35.2653)" fill="#FAFAFA"/>
<circle cx="80.0136" cy="35.3537" r="4.13536" transform="rotate(0.340307 80.0136 35.3537)" fill="#FAFAFA"/>
<circle cx="94.8988" cy="35.4418" r="4.13536" transform="rotate(0.340307 94.8988 35.4418)" fill="#FAFAFA"/>
<circle cx="109.784" cy="35.5305" r="4.13536" transform="rotate(0.340307 109.784 35.5305)" fill="#FAFAFA"/>
<circle cx="124.67" cy="35.6186" r="4.13536" transform="rotate(0.340307 124.67 35.6186)" fill="#FAFAFA"/>
<circle cx="139.554" cy="35.7072" r="4.13536" transform="rotate(0.340307 139.554 35.7072)" fill="#FAFAFA"/>
<circle cx="154.44" cy="35.7956" r="4.13536" transform="rotate(0.340307 154.44 35.7956)" fill="#FAFAFA"/>
<circle cx="169.325" cy="35.884" r="4.13536" transform="rotate(0.340307 169.325 35.884)" fill="#FAFAFA"/>
<circle cx="184.21" cy="35.9724" r="4.13536" transform="rotate(0.340307 184.21 35.9724)" fill="#FAFAFA"/>
<circle cx="199.096" cy="36.0607" r="4.13536" transform="rotate(0.340307 199.096 36.0607)" fill="#FAFAFA"/>
<circle cx="213.981" cy="36.1494" r="4.13536" transform="rotate(0.340307 213.981 36.1494)" fill="#FAFAFA"/>
<circle cx="228.866" cy="36.2377" r="4.13536" transform="rotate(0.340307 228.866 36.2377)" fill="#FAFAFA"/>
<circle cx="243.752" cy="36.3261" r="4.13536" transform="rotate(0.340307 243.752 36.3261)" fill="#FAFAFA"/>
<circle cx="258.637" cy="36.4147" r="4.13536" transform="rotate(0.340307 258.637 36.4147)" fill="#FAFAFA"/>
<circle cx="273.522" cy="36.5029" r="4.13536" transform="rotate(0.340307 273.522 36.5029)" fill="#FAFAFA"/>
<circle cx="288.408" cy="36.5912" r="4.13536" transform="rotate(0.340307 288.408 36.5912)" fill="#FAFAFA"/>
<circle cx="5.49842" cy="49.798" r="4.13536" transform="rotate(0.340307 5.49842 49.798)" fill="#FAFAFA"/>
<circle cx="20.3842" cy="49.8862" r="4.13536" transform="rotate(0.340307 20.3842 49.8862)" fill="#FAFAFA"/>
<circle cx="35.2701" cy="49.9748" r="4.13536" transform="rotate(0.340307 35.2701 49.9748)" fill="#FAFAFA"/>
<circle cx="50.1556" cy="50.0632" r="4.13536" transform="rotate(0.340307 50.1556 50.0632)" fill="#FAFAFA"/>
<circle cx="65.0402" cy="50.1508" r="4.13536" transform="rotate(0.340307 65.0402 50.1508)" fill="#FAFAFA"/>
<circle cx="79.9254" cy="50.2392" r="4.13536" transform="rotate(0.340307 79.9254 50.2392)" fill="#FAFAFA"/>
<circle cx="94.8104" cy="50.3276" r="4.13536" transform="rotate(0.340307 94.8104 50.3276)" fill="#FAFAFA"/>
<circle cx="109.696" cy="50.4162" r="4.13536" transform="rotate(0.340307 109.696 50.4162)" fill="#FAFAFA"/>
<circle cx="124.58" cy="50.5046" r="4.13536" transform="rotate(0.340307 124.58 50.5046)" fill="#FAFAFA"/>
<circle cx="139.466" cy="50.5927" r="4.13536" transform="rotate(0.340307 139.466 50.5927)" fill="#FAFAFA"/>
<circle cx="154.351" cy="50.6811" r="4.13536" transform="rotate(0.340307 154.351 50.6811)" fill="#FAFAFA"/>
<circle cx="169.237" cy="50.7695" r="4.13536" transform="rotate(0.340307 169.237 50.7695)" fill="#FAFAFA"/>
<circle cx="184.122" cy="50.8578" r="4.13536" transform="rotate(0.340307 184.122 50.8578)" fill="#FAFAFA"/>
<circle cx="199.007" cy="50.9465" r="4.13536" transform="rotate(0.340307 199.007 50.9465)" fill="#FAFAFA"/>
<circle cx="213.893" cy="51.0349" r="4.13536" transform="rotate(0.340307 213.893 51.0349)" fill="#FAFAFA"/>
<circle cx="228.778" cy="51.1232" r="4.13536" transform="rotate(0.340307 228.778 51.1232)" fill="#FAFAFA"/>
<circle cx="243.663" cy="51.2116" r="4.13536" transform="rotate(0.340307 243.663 51.2116)" fill="#FAFAFA"/>
<circle cx="258.549" cy="51.3002" r="4.13536" transform="rotate(0.340307 258.549 51.3002)" fill="#FAFAFA"/>
<circle cx="273.433" cy="51.3881" r="4.13536" transform="rotate(0.340307 273.433 51.3881)" fill="#FAFAFA"/>
<circle cx="288.319" cy="51.4767" r="4.13536" transform="rotate(0.340307 288.319 51.4767)" fill="#FAFAFA"/>
<circle cx="5.4098" cy="64.6826" r="4.13536" transform="rotate(0.340307 5.4098 64.6826)" fill="#FAFAFA"/>
<circle cx="20.2955" cy="64.7704" r="4.13536" transform="rotate(0.340307 20.2955 64.7704)" fill="#FAFAFA"/>
<circle cx="35.1808" cy="64.8591" r="4.13536" transform="rotate(0.340307 35.1808 64.8591)" fill="#FAFAFA"/>
<circle cx="50.067" cy="64.9474" r="4.13536" transform="rotate(0.340307 50.067 64.9474)" fill="#FAFAFA"/>
<circle cx="64.9511" cy="65.0358" r="4.13536" transform="rotate(0.340307 64.9511 65.0358)" fill="#FAFAFA"/>
<circle cx="79.8361" cy="65.1245" r="4.13536" transform="rotate(0.340307 79.8361 65.1245)" fill="#FAFAFA"/>
<circle cx="94.7216" cy="65.2128" r="4.13536" transform="rotate(0.340307 94.7216 65.2128)" fill="#FAFAFA"/>
<circle cx="109.607" cy="65.301" r="4.13536" transform="rotate(0.340307 109.607 65.301)" fill="#FAFAFA"/>
<circle cx="124.493" cy="65.3896" r="4.13536" transform="rotate(0.340307 124.493 65.3896)" fill="#FAFAFA"/>
<circle cx="139.378" cy="65.478" r="4.13536" transform="rotate(0.340307 139.378 65.478)" fill="#FAFAFA"/>
<circle cx="154.263" cy="65.5663" r="4.13536" transform="rotate(0.340307 154.263 65.5663)" fill="#FAFAFA"/>
<circle cx="169.148" cy="65.6547" r="4.13536" transform="rotate(0.340307 169.148 65.6547)" fill="#FAFAFA"/>
<circle cx="184.033" cy="65.7431" r="4.13536" transform="rotate(0.340307 184.033 65.7431)" fill="#FAFAFA"/>
<circle cx="198.918" cy="65.8317" r="4.13536" transform="rotate(0.340307 198.918 65.8317)" fill="#FAFAFA"/>
<circle cx="213.804" cy="65.9201" r="4.13536" transform="rotate(0.340307 213.804 65.9201)" fill="#FAFAFA"/>
<circle cx="228.689" cy="66.0085" r="4.13536" transform="rotate(0.340307 228.689 66.0085)" fill="#FAFAFA"/>
<circle cx="243.575" cy="66.0966" r="4.13536" transform="rotate(0.340307 243.575 66.0966)" fill="#FAFAFA"/>
<circle cx="258.459" cy="66.185" r="4.13536" transform="rotate(0.340307 258.459 66.185)" fill="#FAFAFA"/>
<circle cx="273.345" cy="66.2736" r="4.13536" transform="rotate(0.340307 273.345 66.2736)" fill="#FAFAFA"/>
<circle cx="288.23" cy="66.362" r="4.13536" transform="rotate(0.340307 288.23 66.362)" fill="#FAFAFA"/>
<circle cx="5.32142" cy="79.5685" r="4.13536" transform="rotate(0.340307 5.32142 79.5685)" fill="#FAFAFA"/>
<circle cx="20.2069" cy="79.6559" r="4.13536" transform="rotate(0.340307 20.2069 79.6559)" fill="#FAFAFA"/>
<circle cx="35.0924" cy="79.7443" r="4.13536" transform="rotate(0.340307 35.0924 79.7443)" fill="#FAFAFA"/>
<circle cx="49.9784" cy="79.8327" r="4.13536" transform="rotate(0.340307 49.9784 79.8327)" fill="#FAFAFA"/>
<circle cx="64.8624" cy="79.9213" r="4.13536" transform="rotate(0.340307 64.8624 79.9213)" fill="#FAFAFA"/>
<circle cx="79.7474" cy="80.0097" r="4.13536" transform="rotate(0.340307 79.7474 80.0097)" fill="#FAFAFA"/>
<circle cx="94.6327" cy="80.0981" r="4.13536" transform="rotate(0.340307 94.6327 80.0981)" fill="#FAFAFA"/>
<circle cx="109.518" cy="80.1865" r="4.13536" transform="rotate(0.340307 109.518 80.1865)" fill="#FAFAFA"/>
<circle cx="124.404" cy="80.2748" r="4.13536" transform="rotate(0.340307 124.404 80.2748)" fill="#FAFAFA"/>
<circle cx="139.289" cy="80.363" r="4.13536" transform="rotate(0.340307 139.289 80.363)" fill="#FAFAFA"/>
<circle cx="154.174" cy="80.4516" r="4.13536" transform="rotate(0.340307 154.174 80.4516)" fill="#FAFAFA"/>
<circle cx="169.059" cy="80.54" r="4.13536" transform="rotate(0.340307 169.059 80.54)" fill="#FAFAFA"/>
<circle cx="183.945" cy="80.6284" r="4.13536" transform="rotate(0.340307 183.945 80.6284)" fill="#FAFAFA"/>
<circle cx="198.83" cy="80.7167" r="4.13536" transform="rotate(0.340307 198.83 80.7167)" fill="#FAFAFA"/>
<circle cx="213.716" cy="80.8054" r="4.13536" transform="rotate(0.340307 213.716 80.8054)" fill="#FAFAFA"/>
<circle cx="228.6" cy="80.8937" r="4.13536" transform="rotate(0.340307 228.6 80.8937)" fill="#FAFAFA"/>
<circle cx="243.486" cy="80.9821" r="4.13536" transform="rotate(0.340307 243.486 80.9821)" fill="#FAFAFA"/>
<circle cx="258.371" cy="81.0705" r="4.13536" transform="rotate(0.340307 258.371 81.0705)" fill="#FAFAFA"/>
<circle cx="273.256" cy="81.1591" r="4.13536" transform="rotate(0.340307 273.256 81.1591)" fill="#FAFAFA"/>
<circle cx="288.141" cy="81.2473" r="4.13536" transform="rotate(0.340307 288.141 81.2473)" fill="#FAFAFA"/>
<circle cx="5.23328" cy="94.454" r="4.13536" transform="rotate(0.340307 5.23328 94.454)" fill="#FAFAFA"/>
<circle cx="20.1188" cy="94.541" r="4.13536" transform="rotate(0.340307 20.1188 94.541)" fill="#FAFAFA"/>
<circle cx="35.0045" cy="94.6293" r="4.13536" transform="rotate(0.340307 35.0045 94.6293)" fill="#FAFAFA"/>
<circle cx="49.89" cy="94.718" r="4.13536" transform="rotate(0.340307 49.89 94.718)" fill="#FAFAFA"/>
<circle cx="64.7745" cy="94.8063" r="4.13536" transform="rotate(0.340307 64.7745 94.8063)" fill="#FAFAFA"/>
<circle cx="79.6593" cy="94.8947" r="4.13536" transform="rotate(0.340307 79.6593 94.8947)" fill="#FAFAFA"/>
<circle cx="94.5453" cy="94.9828" r="4.13536" transform="rotate(0.340307 94.5453 94.9828)" fill="#FAFAFA"/>
<circle cx="109.43" cy="95.0717" r="4.13536" transform="rotate(0.340307 109.43 95.0717)" fill="#FAFAFA"/>
<circle cx="124.315" cy="95.1599" r="4.13536" transform="rotate(0.340307 124.315 95.1599)" fill="#FAFAFA"/>
<circle cx="139.201" cy="95.2482" r="4.13536" transform="rotate(0.340307 139.201 95.2482)" fill="#FAFAFA"/>
<circle cx="154.086" cy="95.3369" r="4.13536" transform="rotate(0.340307 154.086 95.3369)" fill="#FAFAFA"/>
<circle cx="168.972" cy="95.4252" r="4.13536" transform="rotate(0.340307 168.972 95.4252)" fill="#FAFAFA"/>
<circle cx="183.856" cy="95.5136" r="4.13536" transform="rotate(0.340307 183.856 95.5136)" fill="#FAFAFA"/>
<circle cx="198.742" cy="95.602" r="4.13536" transform="rotate(0.340307 198.742 95.602)" fill="#FAFAFA"/>
<circle cx="213.627" cy="95.6906" r="4.13536" transform="rotate(0.340307 213.627 95.6906)" fill="#FAFAFA"/>
<circle cx="228.513" cy="95.779" r="4.13536" transform="rotate(0.340307 228.513 95.779)" fill="#FAFAFA"/>
<circle cx="243.398" cy="95.8674" r="4.13536" transform="rotate(0.340307 243.398 95.8674)" fill="#FAFAFA"/>
<circle cx="258.283" cy="95.9555" r="4.13536" transform="rotate(0.340307 258.283 95.9555)" fill="#FAFAFA"/>
<circle cx="273.168" cy="96.0439" r="4.13536" transform="rotate(0.340307 273.168 96.0439)" fill="#FAFAFA"/>
<circle cx="288.054" cy="96.1325" r="4.13536" transform="rotate(0.340307 288.054 96.1325)" fill="#FAFAFA"/>
<circle cx="5.14491" cy="109.34" r="4.13536" transform="rotate(0.340307 5.14491 109.34)" fill="#FAFAFA"/>
<circle cx="20.0304" cy="109.427" r="4.13536" transform="rotate(0.340307 20.0304 109.427)" fill="#FAFAFA"/>
<circle cx="34.9159" cy="109.515" r="4.13536" transform="rotate(0.340307 34.9159 109.515)" fill="#FAFAFA"/>
<circle cx="49.8014" cy="109.604" r="4.13536" transform="rotate(0.340307 49.8014 109.604)" fill="#FAFAFA"/>
<circle cx="64.6859" cy="109.692" r="4.13536" transform="rotate(0.340307 64.6859 109.692)" fill="#FAFAFA"/>
<circle cx="79.5712" cy="109.78" r="4.13536" transform="rotate(0.340307 79.5712 109.78)" fill="#FAFAFA"/>
<circle cx="94.4569" cy="109.869" r="4.13536" transform="rotate(0.340307 94.4569 109.869)" fill="#FAFAFA"/>
<circle cx="109.342" cy="109.957" r="4.13536" transform="rotate(0.340307 109.342 109.957)" fill="#FAFAFA"/>
<circle cx="124.227" cy="110.046" r="4.13536" transform="rotate(0.340307 124.227 110.046)" fill="#FAFAFA"/>
<circle cx="139.113" cy="110.134" r="4.13536" transform="rotate(0.340307 139.113 110.134)" fill="#FAFAFA"/>
<circle cx="153.998" cy="110.222" r="4.13536" transform="rotate(0.340307 153.998 110.222)" fill="#FAFAFA"/>
<circle cx="168.883" cy="110.311" r="4.13536" transform="rotate(0.340307 168.883 110.311)" fill="#FAFAFA"/>
<circle cx="183.768" cy="110.399" r="4.13536" transform="rotate(0.340307 183.768 110.399)" fill="#FAFAFA"/>
<circle cx="198.653" cy="110.488" r="4.13536" transform="rotate(0.340307 198.653 110.488)" fill="#FAFAFA"/>
<circle cx="213.538" cy="110.576" r="4.13536" transform="rotate(0.340307 213.538 110.576)" fill="#FAFAFA"/>
<circle cx="228.424" cy="110.664" r="4.13536" transform="rotate(0.340307 228.424 110.664)" fill="#FAFAFA"/>
<circle cx="243.309" cy="110.753" r="4.13536" transform="rotate(0.340307 243.309 110.753)" fill="#FAFAFA"/>
<circle cx="258.194" cy="110.841" r="4.13536" transform="rotate(0.340307 258.194 110.841)" fill="#FAFAFA"/>
<circle cx="273.08" cy="110.93" r="4.13536" transform="rotate(0.340307 273.08 110.93)" fill="#FAFAFA"/>
<circle cx="287.965" cy="111.018" r="4.13536" transform="rotate(0.340307 287.965 111.018)" fill="#FAFAFA"/>
<circle cx="5.05677" cy="124.224" r="4.13536" transform="rotate(0.340307 5.05677 124.224)" fill="#FAFAFA"/>
<circle cx="19.9425" cy="124.312" r="4.13536" transform="rotate(0.340307 19.9425 124.312)" fill="#FAFAFA"/>
<circle cx="34.8278" cy="124.4" r="4.13536" transform="rotate(0.340307 34.8278 124.4)" fill="#FAFAFA"/>
<circle cx="49.713" cy="124.489" r="4.13536" transform="rotate(0.340307 49.713 124.489)" fill="#FAFAFA"/>
<circle cx="64.5975" cy="124.577" r="4.13536" transform="rotate(0.340307 64.5975 124.577)" fill="#FAFAFA"/>
<circle cx="79.4828" cy="124.665" r="4.13536" transform="rotate(0.340307 79.4828 124.665)" fill="#FAFAFA"/>
<circle cx="94.368" cy="124.754" r="4.13536" transform="rotate(0.340307 94.368 124.754)" fill="#FAFAFA"/>
<circle cx="109.254" cy="124.842" r="4.13536" transform="rotate(0.340307 109.254 124.842)" fill="#FAFAFA"/>
<circle cx="124.139" cy="124.931" r="4.13536" transform="rotate(0.340307 124.139 124.931)" fill="#FAFAFA"/>
<circle cx="139.024" cy="125.019" r="4.13536" transform="rotate(0.340307 139.024 125.019)" fill="#FAFAFA"/>
<circle cx="153.91" cy="125.108" r="4.13536" transform="rotate(0.340307 153.91 125.108)" fill="#FAFAFA"/>
<circle cx="168.795" cy="125.196" r="4.13536" transform="rotate(0.340307 168.795 125.196)" fill="#FAFAFA"/>
<circle cx="183.681" cy="125.284" r="4.13536" transform="rotate(0.340307 183.681 125.284)" fill="#FAFAFA"/>
<circle cx="198.565" cy="125.373" r="4.13536" transform="rotate(0.340307 198.565 125.373)" fill="#FAFAFA"/>
<circle cx="213.45" cy="125.461" r="4.13536" transform="rotate(0.340307 213.45 125.461)" fill="#FAFAFA"/>
<circle cx="228.335" cy="125.55" r="4.13536" transform="rotate(0.340307 228.335 125.55)" fill="#FAFAFA"/>
<circle cx="243.221" cy="125.638" r="4.13536" transform="rotate(0.340307 243.221 125.638)" fill="#FAFAFA"/>
<circle cx="258.106" cy="125.726" r="4.13536" transform="rotate(0.340307 258.106 125.726)" fill="#FAFAFA"/>
<circle cx="272.992" cy="125.815" r="4.13536" transform="rotate(0.340307 272.992 125.815)" fill="#FAFAFA"/>
<circle cx="287.877" cy="125.903" r="4.13536" transform="rotate(0.340307 287.877 125.903)" fill="#FAFAFA"/>
<circle cx="4.96815" cy="139.109" r="4.13536" transform="rotate(0.340307 4.96815 139.109)" fill="#FAFAFA"/>
<circle cx="19.8534" cy="139.197" r="4.13536" transform="rotate(0.340307 19.8534 139.197)" fill="#FAFAFA"/>
<circle cx="34.7391" cy="139.285" r="4.13536" transform="rotate(0.340307 34.7391 139.285)" fill="#FAFAFA"/>
<circle cx="49.6249" cy="139.374" r="4.13536" transform="rotate(0.340307 49.6249 139.374)" fill="#FAFAFA"/>
<circle cx="64.5089" cy="139.462" r="4.13536" transform="rotate(0.340307 64.5089 139.462)" fill="#FAFAFA"/>
<circle cx="79.3942" cy="139.551" r="4.13536" transform="rotate(0.340307 79.3942 139.551)" fill="#FAFAFA"/>
<circle cx="94.2802" cy="139.639" r="4.13536" transform="rotate(0.340307 94.2802 139.639)" fill="#FAFAFA"/>
<circle cx="109.164" cy="139.727" r="4.13536" transform="rotate(0.340307 109.164 139.727)" fill="#FAFAFA"/>
<circle cx="124.05" cy="139.816" r="4.13536" transform="rotate(0.340307 124.05 139.816)" fill="#FAFAFA"/>
<circle cx="138.935" cy="139.904" r="4.13536" transform="rotate(0.340307 138.935 139.904)" fill="#FAFAFA"/>
<circle cx="153.821" cy="139.993" r="4.13536" transform="rotate(0.340307 153.821 139.993)" fill="#FAFAFA"/>
<circle cx="168.706" cy="140.081" r="4.13536" transform="rotate(0.340307 168.706 140.081)" fill="#FAFAFA"/>
<circle cx="183.591" cy="140.169" r="4.13536" transform="rotate(0.340307 183.591 140.169)" fill="#FAFAFA"/>
<circle cx="198.476" cy="140.258" r="4.13536" transform="rotate(0.340307 198.476 140.258)" fill="#FAFAFA"/>
<circle cx="213.362" cy="140.346" r="4.13536" transform="rotate(0.340307 213.362 140.346)" fill="#FAFAFA"/>
<circle cx="228.247" cy="140.435" r="4.13536" transform="rotate(0.340307 228.247 140.435)" fill="#FAFAFA"/>
<circle cx="243.133" cy="140.523" r="4.13536" transform="rotate(0.340307 243.133 140.523)" fill="#FAFAFA"/>
<circle cx="258.018" cy="140.612" r="4.13536" transform="rotate(0.340307 258.018 140.612)" fill="#FAFAFA"/>
<circle cx="272.903" cy="140.7" r="4.13536" transform="rotate(0.340307 272.903 140.7)" fill="#FAFAFA"/>
<circle cx="287.788" cy="140.788" r="4.13536" transform="rotate(0.340307 287.788 140.788)" fill="#FAFAFA"/>
<circle cx="4.87953" cy="153.996" r="4.13536" transform="rotate(0.340307 4.87953 153.996)" fill="#FAFAFA"/>
<circle cx="19.765" cy="154.082" r="4.13536" transform="rotate(0.340307 19.765 154.082)" fill="#FAFAFA"/>
<circle cx="34.6508" cy="154.171" r="4.13536" transform="rotate(0.340307 34.6508 154.171)" fill="#FAFAFA"/>
<circle cx="49.5363" cy="154.259" r="4.13536" transform="rotate(0.340307 49.5363 154.259)" fill="#FAFAFA"/>
<circle cx="64.421" cy="154.347" r="4.13536" transform="rotate(0.340307 64.421 154.347)" fill="#FAFAFA"/>
<circle cx="79.306" cy="154.436" r="4.13536" transform="rotate(0.340307 79.306 154.436)" fill="#FAFAFA"/>
<circle cx="94.1913" cy="154.524" r="4.13536" transform="rotate(0.340307 94.1913 154.524)" fill="#FAFAFA"/>
<circle cx="109.077" cy="154.612" r="4.13536" transform="rotate(0.340307 109.077 154.612)" fill="#FAFAFA"/>
<circle cx="123.962" cy="154.701" r="4.13536" transform="rotate(0.340307 123.962 154.701)" fill="#FAFAFA"/>
<circle cx="138.847" cy="154.789" r="4.13536" transform="rotate(0.340307 138.847 154.789)" fill="#FAFAFA"/>
<circle cx="153.732" cy="154.878" r="4.13536" transform="rotate(0.340307 153.732 154.878)" fill="#FAFAFA"/>
<circle cx="168.618" cy="154.966" r="4.13536" transform="rotate(0.340307 168.618 154.966)" fill="#FAFAFA"/>
<circle cx="183.503" cy="155.055" r="4.13536" transform="rotate(0.340307 183.503 155.055)" fill="#FAFAFA"/>
<circle cx="198.388" cy="155.143" r="4.13536" transform="rotate(0.340307 198.388 155.143)" fill="#FAFAFA"/>
<circle cx="213.273" cy="155.232" r="4.13536" transform="rotate(0.340307 213.273 155.232)" fill="#FAFAFA"/>
<circle cx="228.158" cy="155.32" r="4.13536" transform="rotate(0.340307 228.158 155.32)" fill="#FAFAFA"/>
<circle cx="243.044" cy="155.408" r="4.13536" transform="rotate(0.340307 243.044 155.408)" fill="#FAFAFA"/>
<circle cx="257.929" cy="155.497" r="4.13536" transform="rotate(0.340307 257.929 155.497)" fill="#FAFAFA"/>
<circle cx="272.814" cy="155.585" r="4.13536" transform="rotate(0.340307 272.814 155.585)" fill="#FAFAFA"/>
<circle cx="287.7" cy="155.674" r="4.13536" transform="rotate(0.340307 287.7 155.674)" fill="#FAFAFA"/>
<circle cx="4.79066" cy="168.88" r="4.13536" transform="rotate(0.340307 4.79066 168.88)" fill="#FAFAFA"/>
<circle cx="19.6764" cy="168.967" r="4.13536" transform="rotate(0.340307 19.6764 168.967)" fill="#FAFAFA"/>
<circle cx="34.5619" cy="169.055" r="4.13536" transform="rotate(0.340307 34.5619 169.055)" fill="#FAFAFA"/>
<circle cx="49.4474" cy="169.144" r="4.13536" transform="rotate(0.340307 49.4474 169.144)" fill="#FAFAFA"/>
<circle cx="64.3314" cy="169.232" r="4.13536" transform="rotate(0.340307 64.3314 169.232)" fill="#FAFAFA"/>
<circle cx="79.2172" cy="169.321" r="4.13536" transform="rotate(0.340307 79.2172 169.321)" fill="#FAFAFA"/>
<circle cx="94.1024" cy="169.409" r="4.13536" transform="rotate(0.340307 94.1024 169.409)" fill="#FAFAFA"/>
<circle cx="108.988" cy="169.498" r="4.13536" transform="rotate(0.340307 108.988 169.498)" fill="#FAFAFA"/>
<circle cx="123.873" cy="169.586" r="4.13536" transform="rotate(0.340307 123.873 169.586)" fill="#FAFAFA"/>
<circle cx="138.758" cy="169.674" r="4.13536" transform="rotate(0.340307 138.758 169.674)" fill="#FAFAFA"/>
<circle cx="153.643" cy="169.763" r="4.13536" transform="rotate(0.340307 153.643 169.763)" fill="#FAFAFA"/>
<circle cx="168.529" cy="169.852" r="4.13536" transform="rotate(0.340307 168.529 169.852)" fill="#FAFAFA"/>
<circle cx="183.414" cy="169.94" r="4.13536" transform="rotate(0.340307 183.414 169.94)" fill="#FAFAFA"/>
<circle cx="198.299" cy="170.028" r="4.13536" transform="rotate(0.340307 198.299 170.028)" fill="#FAFAFA"/>
<circle cx="213.184" cy="170.117" r="4.13536" transform="rotate(0.340307 213.184 170.117)" fill="#FAFAFA"/>
<circle cx="228.069" cy="170.205" r="4.13536" transform="rotate(0.340307 228.069 170.205)" fill="#FAFAFA"/>
<circle cx="242.955" cy="170.293" r="4.13536" transform="rotate(0.340307 242.955 170.293)" fill="#FAFAFA"/>
<circle cx="257.84" cy="170.382" r="4.13536" transform="rotate(0.340307 257.84 170.382)" fill="#FAFAFA"/>
<circle cx="272.725" cy="170.47" r="4.13536" transform="rotate(0.340307 272.725 170.47)" fill="#FAFAFA"/>
<circle cx="287.611" cy="170.559" r="4.13536" transform="rotate(0.340307 287.611 170.559)" fill="#FAFAFA"/>
<circle cx="4.70277" cy="183.766" r="4.13536" transform="rotate(0.340307 4.70277 183.766)" fill="#FAFAFA"/>
<circle cx="19.5883" cy="183.853" r="4.13536" transform="rotate(0.340307 19.5883 183.853)" fill="#FAFAFA"/>
<circle cx="34.4745" cy="183.941" r="4.13536" transform="rotate(0.340307 34.4745 183.941)" fill="#FAFAFA"/>
<circle cx="49.36" cy="184.029" r="4.13536" transform="rotate(0.340307 49.36 184.029)" fill="#FAFAFA"/>
<circle cx="64.2443" cy="184.118" r="4.13536" transform="rotate(0.340307 64.2443 184.118)" fill="#FAFAFA"/>
<circle cx="79.1295" cy="184.206" r="4.13536" transform="rotate(0.340307 79.1295 184.206)" fill="#FAFAFA"/>
<circle cx="94.0145" cy="184.295" r="4.13536" transform="rotate(0.340307 94.0145 184.295)" fill="#FAFAFA"/>
<circle cx="108.9" cy="184.383" r="4.13536" transform="rotate(0.340307 108.9 184.383)" fill="#FAFAFA"/>
<circle cx="123.785" cy="184.472" r="4.13536" transform="rotate(0.340307 123.785 184.472)" fill="#FAFAFA"/>
<circle cx="138.67" cy="184.56" r="4.13536" transform="rotate(0.340307 138.67 184.56)" fill="#FAFAFA"/>
<circle cx="153.556" cy="184.648" r="4.13536" transform="rotate(0.340307 153.556 184.648)" fill="#FAFAFA"/>
<circle cx="168.441" cy="184.737" r="4.13536" transform="rotate(0.340307 168.441 184.737)" fill="#FAFAFA"/>
<circle cx="183.327" cy="184.825" r="4.13536" transform="rotate(0.340307 183.327 184.825)" fill="#FAFAFA"/>
<circle cx="198.212" cy="184.914" r="4.13536" transform="rotate(0.340307 198.212 184.914)" fill="#FAFAFA"/>
<circle cx="213.098" cy="185.002" r="4.13536" transform="rotate(0.340307 213.098 185.002)" fill="#FAFAFA"/>
<circle cx="227.982" cy="185.091" r="4.13536" transform="rotate(0.340307 227.982 185.091)" fill="#FAFAFA"/>
<circle cx="242.868" cy="185.179" r="4.13536" transform="rotate(0.340307 242.868 185.179)" fill="#FAFAFA"/>
<circle cx="257.752" cy="185.267" r="4.13536" transform="rotate(0.340307 257.752 185.267)" fill="#FAFAFA"/>
<circle cx="272.639" cy="185.356" r="4.13536" transform="rotate(0.340307 272.639 185.356)" fill="#FAFAFA"/>
<circle cx="287.524" cy="185.444" r="4.13536" transform="rotate(0.340307 287.524 185.444)" fill="#FAFAFA"/>
<circle cx="4.61439" cy="198.651" r="4.13536" transform="rotate(0.340307 4.61439 198.651)" fill="#FAFAFA"/>
<circle cx="19.4999" cy="198.738" r="4.13536" transform="rotate(0.340307 19.4999 198.738)" fill="#FAFAFA"/>
<circle cx="34.3859" cy="198.827" r="4.13536" transform="rotate(0.340307 34.3859 198.827)" fill="#FAFAFA"/>
<circle cx="49.2716" cy="198.915" r="4.13536" transform="rotate(0.340307 49.2716 198.915)" fill="#FAFAFA"/>
<circle cx="64.1556" cy="199.004" r="4.13536" transform="rotate(0.340307 64.1556 199.004)" fill="#FAFAFA"/>
<circle cx="79.0409" cy="199.092" r="4.13536" transform="rotate(0.340307 79.0409 199.092)" fill="#FAFAFA"/>
<circle cx="93.9262" cy="199.18" r="4.13536" transform="rotate(0.340307 93.9262 199.18)" fill="#FAFAFA"/>
<circle cx="108.811" cy="199.269" r="4.13536" transform="rotate(0.340307 108.811 199.269)" fill="#FAFAFA"/>
<circle cx="123.697" cy="199.357" r="4.13536" transform="rotate(0.340307 123.697 199.357)" fill="#FAFAFA"/>
<circle cx="138.581" cy="199.445" r="4.13536" transform="rotate(0.340307 138.581 199.445)" fill="#FAFAFA"/>
<circle cx="153.468" cy="199.534" r="4.13536" transform="rotate(0.340307 153.468 199.534)" fill="#FAFAFA"/>
<circle cx="168.352" cy="199.622" r="4.13536" transform="rotate(0.340307 168.352 199.622)" fill="#FAFAFA"/>
<circle cx="183.238" cy="199.711" r="4.13536" transform="rotate(0.340307 183.238 199.711)" fill="#FAFAFA"/>
<circle cx="198.123" cy="199.799" r="4.13536" transform="rotate(0.340307 198.123 199.799)" fill="#FAFAFA"/>
<circle cx="213.009" cy="199.888" r="4.13536" transform="rotate(0.340307 213.009 199.888)" fill="#FAFAFA"/>
<circle cx="227.893" cy="199.976" r="4.13536" transform="rotate(0.340307 227.893 199.976)" fill="#FAFAFA"/>
<circle cx="242.779" cy="200.064" r="4.13536" transform="rotate(0.340307 242.779 200.064)" fill="#FAFAFA"/>
<circle cx="257.664" cy="200.153" r="4.13536" transform="rotate(0.340307 257.664 200.153)" fill="#FAFAFA"/>
<circle cx="272.55" cy="200.241" r="4.13536" transform="rotate(0.340307 272.55 200.241)" fill="#FAFAFA"/>
<circle cx="287.435" cy="200.33" r="4.13536" transform="rotate(0.340307 287.435 200.33)" fill="#FAFAFA"/>
<circle cx="4.52601" cy="213.536" r="4.13536" transform="rotate(0.340307 4.52601 213.536)" fill="#FAFAFA"/>
<circle cx="19.4118" cy="213.624" r="4.13536" transform="rotate(0.340307 19.4118 213.624)" fill="#FAFAFA"/>
<circle cx="34.2975" cy="213.712" r="4.13536" transform="rotate(0.340307 34.2975 213.712)" fill="#FAFAFA"/>
<circle cx="49.183" cy="213.8" r="4.13536" transform="rotate(0.340307 49.183 213.8)" fill="#FAFAFA"/>
<circle cx="64.0675" cy="213.889" r="4.13536" transform="rotate(0.340307 64.0675 213.889)" fill="#FAFAFA"/>
<circle cx="78.9528" cy="213.977" r="4.13536" transform="rotate(0.340307 78.9528 213.977)" fill="#FAFAFA"/>
<circle cx="93.8378" cy="214.066" r="4.13536" transform="rotate(0.340307 93.8378 214.066)" fill="#FAFAFA"/>
<circle cx="108.723" cy="214.154" r="4.13536" transform="rotate(0.340307 108.723 214.154)" fill="#FAFAFA"/>
<circle cx="123.608" cy="214.243" r="4.13536" transform="rotate(0.340307 123.608 214.243)" fill="#FAFAFA"/>
<circle cx="138.494" cy="214.331" r="4.13536" transform="rotate(0.340307 138.494 214.331)" fill="#FAFAFA"/>
<circle cx="153.379" cy="214.419" r="4.13536" transform="rotate(0.340307 153.379 214.419)" fill="#FAFAFA"/>
<circle cx="168.264" cy="214.508" r="4.13536" transform="rotate(0.340307 168.264 214.508)" fill="#FAFAFA"/>
<circle cx="183.149" cy="214.596" r="4.13536" transform="rotate(0.340307 183.149 214.596)" fill="#FAFAFA"/>
<circle cx="198.035" cy="214.685" r="4.13536" transform="rotate(0.340307 198.035 214.685)" fill="#FAFAFA"/>
<circle cx="212.92" cy="214.773" r="4.13536" transform="rotate(0.340307 212.92 214.773)" fill="#FAFAFA"/>
<circle cx="227.806" cy="214.862" r="4.13536" transform="rotate(0.340307 227.806 214.862)" fill="#FAFAFA"/>
<circle cx="242.691" cy="214.95" r="4.13536" transform="rotate(0.340307 242.691 214.95)" fill="#FAFAFA"/>
<circle cx="257.577" cy="215.038" r="4.13536" transform="rotate(0.340307 257.577 215.038)" fill="#FAFAFA"/>
<circle cx="272.462" cy="215.126" r="4.13536" transform="rotate(0.340307 272.462 215.126)" fill="#FAFAFA"/>
<circle cx="287.346" cy="215.215" r="4.13536" transform="rotate(0.340307 287.346 215.215)" fill="#FAFAFA"/>
<circle cx="4.43739" cy="228.421" r="4.13536" transform="rotate(0.340307 4.43739 228.421)" fill="#FAFAFA"/>
<circle cx="19.3229" cy="228.509" r="4.13536" transform="rotate(0.340307 19.3229 228.509)" fill="#FAFAFA"/>
<circle cx="34.2084" cy="228.597" r="4.13536" transform="rotate(0.340307 34.2084 228.597)" fill="#FAFAFA"/>
<circle cx="49.0941" cy="228.685" r="4.13536" transform="rotate(0.340307 49.0941 228.685)" fill="#FAFAFA"/>
<circle cx="63.9789" cy="228.774" r="4.13536" transform="rotate(0.340307 63.9789 228.774)" fill="#FAFAFA"/>
<circle cx="78.8637" cy="228.862" r="4.13536" transform="rotate(0.340307 78.8637 228.862)" fill="#FAFAFA"/>
<circle cx="93.7494" cy="228.951" r="4.13536" transform="rotate(0.340307 93.7494 228.951)" fill="#FAFAFA"/>
<circle cx="108.635" cy="229.039" r="4.13536" transform="rotate(0.340307 108.635 229.039)" fill="#FAFAFA"/>
<circle cx="123.52" cy="229.127" r="4.13536" transform="rotate(0.340307 123.52 229.127)" fill="#FAFAFA"/>
<circle cx="138.406" cy="229.216" r="4.13536" transform="rotate(0.340307 138.406 229.216)" fill="#FAFAFA"/>
<circle cx="153.291" cy="229.304" r="4.13536" transform="rotate(0.340307 153.291 229.304)" fill="#FAFAFA"/>
<circle cx="168.175" cy="229.393" r="4.13536" transform="rotate(0.340307 168.175 229.393)" fill="#FAFAFA"/>
<circle cx="183.06" cy="229.481" r="4.13536" transform="rotate(0.340307 183.06 229.481)" fill="#FAFAFA"/>
<circle cx="197.946" cy="229.57" r="4.13536" transform="rotate(0.340307 197.946 229.57)" fill="#FAFAFA"/>
<circle cx="212.831" cy="229.658" r="4.13536" transform="rotate(0.340307 212.831 229.658)" fill="#FAFAFA"/>
<circle cx="227.716" cy="229.747" r="4.13536" transform="rotate(0.340307 227.716 229.747)" fill="#FAFAFA"/>
<circle cx="242.602" cy="229.834" r="4.13536" transform="rotate(0.340307 242.602 229.834)" fill="#FAFAFA"/>
<circle cx="257.487" cy="229.923" r="4.13536" transform="rotate(0.340307 257.487 229.923)" fill="#FAFAFA"/>
<circle cx="272.373" cy="230.012" r="4.13536" transform="rotate(0.340307 272.373 230.012)" fill="#FAFAFA"/>
<circle cx="287.258" cy="230.1" r="4.13536" transform="rotate(0.340307 287.258 230.1)" fill="#FAFAFA"/>
<circle cx="4.34901" cy="243.306" r="4.13536" transform="rotate(0.340307 4.34901 243.306)" fill="#FAFAFA"/>
<circle cx="19.2345" cy="243.394" r="4.13536" transform="rotate(0.340307 19.2345 243.394)" fill="#FAFAFA"/>
<circle cx="34.1205" cy="243.482" r="4.13536" transform="rotate(0.340307 34.1205 243.482)" fill="#FAFAFA"/>
<circle cx="49.006" cy="243.571" r="4.13536" transform="rotate(0.340307 49.006 243.571)" fill="#FAFAFA"/>
<circle cx="63.89" cy="243.659" r="4.13536" transform="rotate(0.340307 63.89 243.659)" fill="#FAFAFA"/>
<circle cx="78.7753" cy="243.747" r="4.13536" transform="rotate(0.340307 78.7753 243.747)" fill="#FAFAFA"/>
<circle cx="93.6605" cy="243.836" r="4.13536" transform="rotate(0.340307 93.6605 243.836)" fill="#FAFAFA"/>
<circle cx="108.546" cy="243.924" r="4.13536" transform="rotate(0.340307 108.546 243.924)" fill="#FAFAFA"/>
<circle cx="123.432" cy="244.013" r="4.13536" transform="rotate(0.340307 123.432 244.013)" fill="#FAFAFA"/>
<circle cx="138.317" cy="244.101" r="4.13536" transform="rotate(0.340307 138.317 244.101)" fill="#FAFAFA"/>
<circle cx="153.202" cy="244.189" r="4.13536" transform="rotate(0.340307 153.202 244.189)" fill="#FAFAFA"/>
<circle cx="168.087" cy="244.278" r="4.13536" transform="rotate(0.340307 168.087 244.278)" fill="#FAFAFA"/>
<circle cx="182.973" cy="244.366" r="4.13536" transform="rotate(0.340307 182.973 244.366)" fill="#FAFAFA"/>
<circle cx="197.857" cy="244.455" r="4.13536" transform="rotate(0.340307 197.857 244.455)" fill="#FAFAFA"/>
<circle cx="212.743" cy="244.543" r="4.13536" transform="rotate(0.340307 212.743 244.543)" fill="#FAFAFA"/>
<circle cx="227.628" cy="244.632" r="4.13536" transform="rotate(0.340307 227.628 244.632)" fill="#FAFAFA"/>
<circle cx="242.513" cy="244.72" r="4.13536" transform="rotate(0.340307 242.513 244.72)" fill="#FAFAFA"/>
<circle cx="257.398" cy="244.808" r="4.13536" transform="rotate(0.340307 257.398 244.808)" fill="#FAFAFA"/>
<circle cx="272.284" cy="244.897" r="4.13536" transform="rotate(0.340307 272.284 244.897)" fill="#FAFAFA"/>
<circle cx="287.169" cy="244.985" r="4.13536" transform="rotate(0.340307 287.169 244.985)" fill="#FAFAFA"/>
<circle cx="4.26063" cy="258.192" r="4.13536" transform="rotate(0.340307 4.26063 258.192)" fill="#FAFAFA"/>
<circle cx="19.1464" cy="258.279" r="4.13536" transform="rotate(0.340307 19.1464 258.279)" fill="#FAFAFA"/>
<circle cx="34.0319" cy="258.367" r="4.13536" transform="rotate(0.340307 34.0319 258.367)" fill="#FAFAFA"/>
<circle cx="48.9179" cy="258.456" r="4.13536" transform="rotate(0.340307 48.9179 258.456)" fill="#FAFAFA"/>
<circle cx="63.8019" cy="258.544" r="4.13536" transform="rotate(0.340307 63.8019 258.544)" fill="#FAFAFA"/>
<circle cx="78.6871" cy="258.633" r="4.13536" transform="rotate(0.340307 78.6871 258.633)" fill="#FAFAFA"/>
<circle cx="93.5726" cy="258.721" r="4.13536" transform="rotate(0.340307 93.5726 258.721)" fill="#FAFAFA"/>
<circle cx="108.457" cy="258.809" r="4.13536" transform="rotate(0.340307 108.457 258.809)" fill="#FAFAFA"/>
<circle cx="123.343" cy="258.898" r="4.13536" transform="rotate(0.340307 123.343 258.898)" fill="#FAFAFA"/>
<circle cx="138.228" cy="258.986" r="4.13536" transform="rotate(0.340307 138.228 258.986)" fill="#FAFAFA"/>
<circle cx="153.113" cy="259.075" r="4.13536" transform="rotate(0.340307 153.113 259.075)" fill="#FAFAFA"/>
<circle cx="167.999" cy="259.163" r="4.13536" transform="rotate(0.340307 167.999 259.163)" fill="#FAFAFA"/>
<circle cx="182.884" cy="259.251" r="4.13536" transform="rotate(0.340307 182.884 259.251)" fill="#FAFAFA"/>
<circle cx="197.769" cy="259.34" r="4.13536" transform="rotate(0.340307 197.769 259.34)" fill="#FAFAFA"/>
<circle cx="212.655" cy="259.428" r="4.13536" transform="rotate(0.340307 212.655 259.428)" fill="#FAFAFA"/>
<circle cx="227.54" cy="259.517" r="4.13536" transform="rotate(0.340307 227.54 259.517)" fill="#FAFAFA"/>
<circle cx="242.425" cy="259.605" r="4.13536" transform="rotate(0.340307 242.425 259.605)" fill="#FAFAFA"/>
<circle cx="257.31" cy="259.694" r="4.13536" transform="rotate(0.340307 257.31 259.694)" fill="#FAFAFA"/>
<circle cx="272.196" cy="259.782" r="4.13536" transform="rotate(0.340307 272.196 259.782)" fill="#FAFAFA"/>
<circle cx="287.081" cy="259.87" r="4.13536" transform="rotate(0.340307 287.081 259.87)" fill="#FAFAFA"/>
<circle cx="4.17249" cy="273.077" r="4.13536" transform="rotate(0.340307 4.17249 273.077)" fill="#FAFAFA"/>
<circle cx="19.0582" cy="273.165" r="4.13536" transform="rotate(0.340307 19.0582 273.165)" fill="#FAFAFA"/>
<circle cx="33.9437" cy="273.253" r="4.13536" transform="rotate(0.340307 33.9437 273.253)" fill="#FAFAFA"/>
<circle cx="48.8292" cy="273.341" r="4.13536" transform="rotate(0.340307 48.8292 273.341)" fill="#FAFAFA"/>
<circle cx="63.7135" cy="273.429" r="4.13536" transform="rotate(0.340307 63.7135 273.429)" fill="#FAFAFA"/>
<circle cx="78.5988" cy="273.518" r="4.13536" transform="rotate(0.340307 78.5988 273.518)" fill="#FAFAFA"/>
<circle cx="93.4843" cy="273.606" r="4.13536" transform="rotate(0.340307 93.4843 273.606)" fill="#FAFAFA"/>
<circle cx="108.37" cy="273.695" r="4.13536" transform="rotate(0.340307 108.37 273.695)" fill="#FAFAFA"/>
<circle cx="123.255" cy="273.783" r="4.13536" transform="rotate(0.340307 123.255 273.783)" fill="#FAFAFA"/>
<circle cx="138.14" cy="273.871" r="4.13536" transform="rotate(0.340307 138.14 273.871)" fill="#FAFAFA"/>
<circle cx="153.025" cy="273.96" r="4.13536" transform="rotate(0.340307 153.025 273.96)" fill="#FAFAFA"/>
<circle cx="167.911" cy="274.049" r="4.13536" transform="rotate(0.340307 167.911 274.049)" fill="#FAFAFA"/>
<circle cx="182.796" cy="274.137" r="4.13536" transform="rotate(0.340307 182.796 274.137)" fill="#FAFAFA"/>
<circle cx="197.681" cy="274.226" r="4.13536" transform="rotate(0.340307 197.681 274.226)" fill="#FAFAFA"/>
<circle cx="212.566" cy="274.314" r="4.13536" transform="rotate(0.340307 212.566 274.314)" fill="#FAFAFA"/>
<circle cx="227.451" cy="274.402" r="4.13536" transform="rotate(0.340307 227.451 274.402)" fill="#FAFAFA"/>
<circle cx="242.337" cy="274.491" r="4.13536" transform="rotate(0.340307 242.337 274.491)" fill="#FAFAFA"/>
<circle cx="257.222" cy="274.579" r="4.13536" transform="rotate(0.340307 257.222 274.579)" fill="#FAFAFA"/>
<circle cx="272.108" cy="274.667" r="4.13536" transform="rotate(0.340307 272.108 274.667)" fill="#FAFAFA"/>
<circle cx="286.993" cy="274.756" r="4.13536" transform="rotate(0.340307 286.993 274.756)" fill="#FAFAFA"/>
<circle cx="301.776" cy="6.88812" r="4.13536" transform="rotate(0.340307 301.776 6.88812)" fill="#FAFAFA"/>
<circle cx="316.661" cy="6.97626" r="4.13536" transform="rotate(0.340307 316.661 6.97626)" fill="#FAFAFA"/>
<circle cx="331.546" cy="7.06463" r="4.13536" transform="rotate(0.340307 331.546 7.06463)" fill="#FAFAFA"/>
<circle cx="346.431" cy="7.15301" r="4.13536" transform="rotate(0.340307 346.431 7.15301)" fill="#FAFAFA"/>
<circle cx="361.315" cy="7.24164" r="4.13536" transform="rotate(0.340307 361.315 7.24164)" fill="#FAFAFA"/>
<circle cx="376.201" cy="7.33002" r="4.13536" transform="rotate(0.340307 376.201 7.33002)" fill="#FAFAFA"/>
<circle cx="391.086" cy="7.41839" r="4.13536" transform="rotate(0.340307 391.086 7.41839)" fill="#FAFAFA"/>
<circle cx="405.971" cy="7.50677" r="4.13536" transform="rotate(0.340307 405.971 7.50677)" fill="#FAFAFA"/>
<circle cx="420.856" cy="7.59515" r="4.13536" transform="rotate(0.340307 420.856 7.59515)" fill="#FAFAFA"/>
<circle cx="435.742" cy="7.68353" r="4.13536" transform="rotate(0.340307 435.742 7.68353)" fill="#FAFAFA"/>
<circle cx="450.627" cy="7.77215" r="4.13536" transform="rotate(0.340307 450.627 7.77215)" fill="#FAFAFA"/>
<circle cx="465.513" cy="7.86053" r="4.13536" transform="rotate(0.340307 465.513 7.86053)" fill="#FAFAFA"/>
<circle cx="480.398" cy="7.94891" r="4.13536" transform="rotate(0.340307 480.398 7.94891)" fill="#FAFAFA"/>
<circle cx="495.283" cy="8.03729" r="4.13536" transform="rotate(0.340307 495.283 8.03729)" fill="#FAFAFA"/>
<circle cx="510.168" cy="8.12591" r="4.13536" transform="rotate(0.340307 510.168 8.12591)" fill="#FAFAFA"/>
<circle cx="525.054" cy="8.21405" r="4.13536" transform="rotate(0.340307 525.054 8.21405)" fill="#FAFAFA"/>
<circle cx="539.939" cy="8.30267" r="4.13536" transform="rotate(0.340307 539.939 8.30267)" fill="#FAFAFA"/>
<circle cx="554.824" cy="8.39081" r="4.13536" transform="rotate(0.340307 554.824 8.39081)" fill="#FAFAFA"/>
<circle cx="569.709" cy="8.47943" r="4.13536" transform="rotate(0.340307 569.709 8.47943)" fill="#FAFAFA"/>
<circle cx="584.594" cy="8.56805" r="4.13536" transform="rotate(0.340307 584.594 8.56805)" fill="#FAFAFA"/>
<circle cx="301.686" cy="21.7736" r="4.13536" transform="rotate(0.340307 301.686 21.7736)" fill="#FAFAFA"/>
<circle cx="316.572" cy="21.8618" r="4.13536" transform="rotate(0.340307 316.572 21.8618)" fill="#FAFAFA"/>
<circle cx="331.457" cy="21.9504" r="4.13536" transform="rotate(0.340307 331.457 21.9504)" fill="#FAFAFA"/>
<circle cx="346.342" cy="22.0388" r="4.13536" transform="rotate(0.340307 346.342 22.0388)" fill="#FAFAFA"/>
<circle cx="361.227" cy="22.1269" r="4.13536" transform="rotate(0.340307 361.227 22.1269)" fill="#FAFAFA"/>
<circle cx="376.112" cy="22.2153" r="4.13536" transform="rotate(0.340307 376.112 22.2153)" fill="#FAFAFA"/>
<circle cx="390.998" cy="22.3036" r="4.13536" transform="rotate(0.340307 390.998 22.3036)" fill="#FAFAFA"/>
<circle cx="405.883" cy="22.3923" r="4.13536" transform="rotate(0.340307 405.883 22.3923)" fill="#FAFAFA"/>
<circle cx="420.768" cy="22.4806" r="4.13536" transform="rotate(0.340307 420.768 22.4806)" fill="#FAFAFA"/>
<circle cx="435.653" cy="22.5688" r="4.13536" transform="rotate(0.340307 435.653 22.5688)" fill="#FAFAFA"/>
<circle cx="450.538" cy="22.6574" r="4.13536" transform="rotate(0.340307 450.538 22.6574)" fill="#FAFAFA"/>
<circle cx="465.424" cy="22.7458" r="4.13536" transform="rotate(0.340307 465.424 22.7458)" fill="#FAFAFA"/>
<circle cx="480.309" cy="22.8342" r="4.13536" transform="rotate(0.340307 480.309 22.8342)" fill="#FAFAFA"/>
<circle cx="495.194" cy="22.9228" r="4.13536" transform="rotate(0.340307 495.194 22.9228)" fill="#FAFAFA"/>
<circle cx="510.079" cy="23.0109" r="4.13536" transform="rotate(0.340307 510.079 23.0109)" fill="#FAFAFA"/>
<circle cx="524.965" cy="23.0993" r="4.13536" transform="rotate(0.340307 524.965 23.0993)" fill="#FAFAFA"/>
<circle cx="539.85" cy="23.1877" r="4.13536" transform="rotate(0.340307 539.85 23.1877)" fill="#FAFAFA"/>
<circle cx="554.736" cy="23.2761" r="4.13536" transform="rotate(0.340307 554.736 23.2761)" fill="#FAFAFA"/>
<circle cx="569.621" cy="23.3647" r="4.13536" transform="rotate(0.340307 569.621 23.3647)" fill="#FAFAFA"/>
<circle cx="584.506" cy="23.4531" r="4.13536" transform="rotate(0.340307 584.506 23.4531)" fill="#FAFAFA"/>
<circle cx="301.598" cy="36.6594" r="4.13536" transform="rotate(0.340307 301.598 36.6594)" fill="#FAFAFA"/>
<circle cx="316.483" cy="36.7473" r="4.13536" transform="rotate(0.340307 316.483 36.7473)" fill="#FAFAFA"/>
<circle cx="331.369" cy="36.8356" r="4.13536" transform="rotate(0.340307 331.369 36.8356)" fill="#FAFAFA"/>
<circle cx="346.253" cy="36.9235" r="4.13536" transform="rotate(0.340307 346.253 36.9235)" fill="#FAFAFA"/>
<circle cx="361.138" cy="37.0119" r="4.13536" transform="rotate(0.340307 361.138 37.0119)" fill="#FAFAFA"/>
<circle cx="376.023" cy="37.1003" r="4.13536" transform="rotate(0.340307 376.023 37.1003)" fill="#FAFAFA"/>
<circle cx="390.909" cy="37.1887" r="4.13536" transform="rotate(0.340307 390.909 37.1887)" fill="#FAFAFA"/>
<circle cx="405.794" cy="37.2773" r="4.13536" transform="rotate(0.340307 405.794 37.2773)" fill="#FAFAFA"/>
<circle cx="420.679" cy="37.3657" r="4.13536" transform="rotate(0.340307 420.679 37.3657)" fill="#FAFAFA"/>
<circle cx="435.565" cy="37.454" r="4.13536" transform="rotate(0.340307 435.565 37.454)" fill="#FAFAFA"/>
<circle cx="450.45" cy="37.5427" r="4.13536" transform="rotate(0.340307 450.45 37.5427)" fill="#FAFAFA"/>
<circle cx="465.335" cy="37.6308" r="4.13536" transform="rotate(0.340307 465.335 37.6308)" fill="#FAFAFA"/>
<circle cx="480.221" cy="37.7192" r="4.13536" transform="rotate(0.340307 480.221 37.7192)" fill="#FAFAFA"/>
<circle cx="495.105" cy="37.8076" r="4.13536" transform="rotate(0.340307 495.105 37.8076)" fill="#FAFAFA"/>
<circle cx="509.991" cy="37.8962" r="4.13536" transform="rotate(0.340307 509.991 37.8962)" fill="#FAFAFA"/>
<circle cx="524.876" cy="37.9846" r="4.13536" transform="rotate(0.340307 524.876 37.9846)" fill="#FAFAFA"/>
<circle cx="539.761" cy="38.0729" r="4.13536" transform="rotate(0.340307 539.761 38.0729)" fill="#FAFAFA"/>
<circle cx="554.646" cy="38.1613" r="4.13536" transform="rotate(0.340307 554.646 38.1613)" fill="#FAFAFA"/>
<circle cx="569.532" cy="38.2499" r="4.13536" transform="rotate(0.340307 569.532 38.2499)" fill="#FAFAFA"/>
<circle cx="584.417" cy="38.3383" r="4.13536" transform="rotate(0.340307 584.417 38.3383)" fill="#FAFAFA"/>
<circle cx="301.509" cy="51.5444" r="4.13536" transform="rotate(0.340307 301.509 51.5444)" fill="#FAFAFA"/>
<circle cx="316.394" cy="51.633" r="4.13536" transform="rotate(0.340307 316.394 51.633)" fill="#FAFAFA"/>
<circle cx="331.28" cy="51.7216" r="4.13536" transform="rotate(0.340307 331.28 51.7216)" fill="#FAFAFA"/>
<circle cx="346.166" cy="51.81" r="4.13536" transform="rotate(0.340307 346.166 51.81)" fill="#FAFAFA"/>
<circle cx="361.051" cy="51.8974" r="4.13536" transform="rotate(0.340307 361.051 51.8974)" fill="#FAFAFA"/>
<circle cx="375.936" cy="51.9858" r="4.13536" transform="rotate(0.340307 375.936 51.9858)" fill="#FAFAFA"/>
<circle cx="390.821" cy="52.0742" r="4.13536" transform="rotate(0.340307 390.821 52.0742)" fill="#FAFAFA"/>
<circle cx="405.706" cy="52.1628" r="4.13536" transform="rotate(0.340307 405.706 52.1628)" fill="#FAFAFA"/>
<circle cx="420.592" cy="52.2512" r="4.13536" transform="rotate(0.340307 420.592 52.2512)" fill="#FAFAFA"/>
<circle cx="435.477" cy="52.3395" r="4.13536" transform="rotate(0.340307 435.477 52.3395)" fill="#FAFAFA"/>
<circle cx="450.362" cy="52.4282" r="4.13536" transform="rotate(0.340307 450.362 52.4282)" fill="#FAFAFA"/>
<circle cx="465.247" cy="52.5163" r="4.13536" transform="rotate(0.340307 465.247 52.5163)" fill="#FAFAFA"/>
<circle cx="480.133" cy="52.6047" r="4.13536" transform="rotate(0.340307 480.133 52.6047)" fill="#FAFAFA"/>
<circle cx="495.017" cy="52.6931" r="4.13536" transform="rotate(0.340307 495.017 52.6931)" fill="#FAFAFA"/>
<circle cx="509.903" cy="52.7817" r="4.13536" transform="rotate(0.340307 509.903 52.7817)" fill="#FAFAFA"/>
<circle cx="524.788" cy="52.8701" r="4.13536" transform="rotate(0.340307 524.788 52.8701)" fill="#FAFAFA"/>
<circle cx="539.674" cy="52.9584" r="4.13536" transform="rotate(0.340307 539.674 52.9584)" fill="#FAFAFA"/>
<circle cx="554.559" cy="53.0468" r="4.13536" transform="rotate(0.340307 554.559 53.0468)" fill="#FAFAFA"/>
<circle cx="569.444" cy="53.1352" r="4.13536" transform="rotate(0.340307 569.444 53.1352)" fill="#FAFAFA"/>
<circle cx="584.329" cy="53.2238" r="4.13536" transform="rotate(0.340307 584.329 53.2238)" fill="#FAFAFA"/>
<circle cx="301.42" cy="66.4301" r="4.13536" transform="rotate(0.340307 301.42 66.4301)" fill="#FAFAFA"/>
<circle cx="316.306" cy="66.5173" r="4.13536" transform="rotate(0.340307 316.306 66.5173)" fill="#FAFAFA"/>
<circle cx="331.191" cy="66.6059" r="4.13536" transform="rotate(0.340307 331.191 66.6059)" fill="#FAFAFA"/>
<circle cx="346.077" cy="66.6943" r="4.13536" transform="rotate(0.340307 346.077 66.6943)" fill="#FAFAFA"/>
<circle cx="360.961" cy="66.7829" r="4.13536" transform="rotate(0.340307 360.961 66.7829)" fill="#FAFAFA"/>
<circle cx="375.846" cy="66.8713" r="4.13536" transform="rotate(0.340307 375.846 66.8713)" fill="#FAFAFA"/>
<circle cx="390.732" cy="66.9597" r="4.13536" transform="rotate(0.340307 390.732 66.9597)" fill="#FAFAFA"/>
<circle cx="405.617" cy="67.0483" r="4.13536" transform="rotate(0.340307 405.617 67.0483)" fill="#FAFAFA"/>
<circle cx="420.502" cy="67.1367" r="4.13536" transform="rotate(0.340307 420.502 67.1367)" fill="#FAFAFA"/>
<circle cx="435.388" cy="67.225" r="4.13536" transform="rotate(0.340307 435.388 67.225)" fill="#FAFAFA"/>
<circle cx="450.273" cy="67.3132" r="4.13536" transform="rotate(0.340307 450.273 67.3132)" fill="#FAFAFA"/>
<circle cx="465.158" cy="67.4016" r="4.13536" transform="rotate(0.340307 465.158 67.4016)" fill="#FAFAFA"/>
<circle cx="480.043" cy="67.4902" r="4.13536" transform="rotate(0.340307 480.043 67.4902)" fill="#FAFAFA"/>
<circle cx="494.928" cy="67.5786" r="4.13536" transform="rotate(0.340307 494.928 67.5786)" fill="#FAFAFA"/>
<circle cx="509.813" cy="67.6669" r="4.13536" transform="rotate(0.340307 509.813 67.6669)" fill="#FAFAFA"/>
<circle cx="524.7" cy="67.7553" r="4.13536" transform="rotate(0.340307 524.7 67.7553)" fill="#FAFAFA"/>
<circle cx="539.584" cy="67.8437" r="4.13536" transform="rotate(0.340307 539.584 67.8437)" fill="#FAFAFA"/>
<circle cx="554.469" cy="67.9323" r="4.13536" transform="rotate(0.340307 554.469 67.9323)" fill="#FAFAFA"/>
<circle cx="569.355" cy="68.0207" r="4.13536" transform="rotate(0.340307 569.355 68.0207)" fill="#FAFAFA"/>
<circle cx="584.24" cy="68.1088" r="4.13536" transform="rotate(0.340307 584.24 68.1088)" fill="#FAFAFA"/>
<circle cx="301.331" cy="81.3154" r="4.13536" transform="rotate(0.340307 301.331 81.3154)" fill="#FAFAFA"/>
<circle cx="316.217" cy="81.4025" r="4.13536" transform="rotate(0.340307 316.217 81.4025)" fill="#FAFAFA"/>
<circle cx="331.103" cy="81.4909" r="4.13536" transform="rotate(0.340307 331.103 81.4909)" fill="#FAFAFA"/>
<circle cx="345.989" cy="81.5795" r="4.13536" transform="rotate(0.340307 345.989 81.5795)" fill="#FAFAFA"/>
<circle cx="360.873" cy="81.6679" r="4.13536" transform="rotate(0.340307 360.873 81.6679)" fill="#FAFAFA"/>
<circle cx="375.758" cy="81.7563" r="4.13536" transform="rotate(0.340307 375.758 81.7563)" fill="#FAFAFA"/>
<circle cx="390.643" cy="81.8449" r="4.13536" transform="rotate(0.340307 390.643 81.8449)" fill="#FAFAFA"/>
<circle cx="405.529" cy="81.9333" r="4.13536" transform="rotate(0.340307 405.529 81.9333)" fill="#FAFAFA"/>
<circle cx="420.413" cy="82.0217" r="4.13536" transform="rotate(0.340307 420.413 82.0217)" fill="#FAFAFA"/>
<circle cx="435.299" cy="82.1103" r="4.13536" transform="rotate(0.340307 435.299 82.1103)" fill="#FAFAFA"/>
<circle cx="450.184" cy="82.1987" r="4.13536" transform="rotate(0.340307 450.184 82.1987)" fill="#FAFAFA"/>
<circle cx="465.07" cy="82.287" r="4.13536" transform="rotate(0.340307 465.07 82.287)" fill="#FAFAFA"/>
<circle cx="479.956" cy="82.3752" r="4.13536" transform="rotate(0.340307 479.956 82.3752)" fill="#FAFAFA"/>
<circle cx="494.84" cy="82.4636" r="4.13536" transform="rotate(0.340307 494.84 82.4636)" fill="#FAFAFA"/>
<circle cx="509.725" cy="82.5522" r="4.13536" transform="rotate(0.340307 509.725 82.5522)" fill="#FAFAFA"/>
<circle cx="524.611" cy="82.6406" r="4.13536" transform="rotate(0.340307 524.611 82.6406)" fill="#FAFAFA"/>
<circle cx="539.496" cy="82.7289" r="4.13536" transform="rotate(0.340307 539.496 82.7289)" fill="#FAFAFA"/>
<circle cx="554.381" cy="82.8173" r="4.13536" transform="rotate(0.340307 554.381 82.8173)" fill="#FAFAFA"/>
<circle cx="569.267" cy="82.9057" r="4.13536" transform="rotate(0.340307 569.267 82.9057)" fill="#FAFAFA"/>
<circle cx="584.152" cy="82.9941" r="4.13536" transform="rotate(0.340307 584.152 82.9941)" fill="#FAFAFA"/>
<circle cx="301.243" cy="96.2011" r="4.13536" transform="rotate(0.340307 301.243 96.2011)" fill="#FAFAFA"/>
<circle cx="316.129" cy="96.2885" r="4.13536" transform="rotate(0.340307 316.129 96.2885)" fill="#FAFAFA"/>
<circle cx="331.014" cy="96.3769" r="4.13536" transform="rotate(0.340307 331.014 96.3769)" fill="#FAFAFA"/>
<circle cx="345.9" cy="96.465" r="4.13536" transform="rotate(0.340307 345.9 96.465)" fill="#FAFAFA"/>
<circle cx="360.784" cy="96.5534" r="4.13536" transform="rotate(0.340307 360.784 96.5534)" fill="#FAFAFA"/>
<circle cx="375.669" cy="96.6418" r="4.13536" transform="rotate(0.340307 375.669 96.6418)" fill="#FAFAFA"/>
<circle cx="390.555" cy="96.7304" r="4.13536" transform="rotate(0.340307 390.555 96.7304)" fill="#FAFAFA"/>
<circle cx="405.44" cy="96.8188" r="4.13536" transform="rotate(0.340307 405.44 96.8188)" fill="#FAFAFA"/>
<circle cx="420.325" cy="96.9072" r="4.13536" transform="rotate(0.340307 420.325 96.9072)" fill="#FAFAFA"/>
<circle cx="435.211" cy="96.9958" r="4.13536" transform="rotate(0.340307 435.211 96.9958)" fill="#FAFAFA"/>
<circle cx="450.096" cy="97.0842" r="4.13536" transform="rotate(0.340307 450.096 97.0842)" fill="#FAFAFA"/>
<circle cx="464.981" cy="97.1725" r="4.13536" transform="rotate(0.340307 464.981 97.1725)" fill="#FAFAFA"/>
<circle cx="479.867" cy="97.2607" r="4.13536" transform="rotate(0.340307 479.867 97.2607)" fill="#FAFAFA"/>
<circle cx="494.751" cy="97.3491" r="4.13536" transform="rotate(0.340307 494.751 97.3491)" fill="#FAFAFA"/>
<circle cx="509.636" cy="97.4377" r="4.13536" transform="rotate(0.340307 509.636 97.4377)" fill="#FAFAFA"/>
<circle cx="524.522" cy="97.5261" r="4.13536" transform="rotate(0.340307 524.522 97.5261)" fill="#FAFAFA"/>
<circle cx="539.408" cy="97.6144" r="4.13536" transform="rotate(0.340307 539.408 97.6144)" fill="#FAFAFA"/>
<circle cx="554.292" cy="97.7028" r="4.13536" transform="rotate(0.340307 554.292 97.7028)" fill="#FAFAFA"/>
<circle cx="569.178" cy="97.7912" r="4.13536" transform="rotate(0.340307 569.178 97.7912)" fill="#FAFAFA"/>
<circle cx="584.063" cy="97.8796" r="4.13536" transform="rotate(0.340307 584.063 97.8796)" fill="#FAFAFA"/>
<circle cx="301.155" cy="111.086" r="4.13536" transform="rotate(0.340307 301.155 111.086)" fill="#FAFAFA"/>
<circle cx="316.04" cy="111.173" r="4.13536" transform="rotate(0.340307 316.04 111.173)" fill="#FAFAFA"/>
<circle cx="330.926" cy="111.262" r="4.13536" transform="rotate(0.340307 330.926 111.262)" fill="#FAFAFA"/>
<circle cx="345.812" cy="111.35" r="4.13536" transform="rotate(0.340307 345.812 111.35)" fill="#FAFAFA"/>
<circle cx="360.696" cy="111.438" r="4.13536" transform="rotate(0.340307 360.696 111.438)" fill="#FAFAFA"/>
<circle cx="375.581" cy="111.527" r="4.13536" transform="rotate(0.340307 375.581 111.527)" fill="#FAFAFA"/>
<circle cx="390.467" cy="111.615" r="4.13536" transform="rotate(0.340307 390.467 111.615)" fill="#FAFAFA"/>
<circle cx="405.352" cy="111.704" r="4.13536" transform="rotate(0.340307 405.352 111.704)" fill="#FAFAFA"/>
<circle cx="420.238" cy="111.792" r="4.13536" transform="rotate(0.340307 420.238 111.792)" fill="#FAFAFA"/>
<circle cx="435.123" cy="111.881" r="4.13536" transform="rotate(0.340307 435.123 111.881)" fill="#FAFAFA"/>
<circle cx="450.008" cy="111.969" r="4.13536" transform="rotate(0.340307 450.008 111.969)" fill="#FAFAFA"/>
<circle cx="464.893" cy="112.058" r="4.13536" transform="rotate(0.340307 464.893 112.058)" fill="#FAFAFA"/>
<circle cx="479.778" cy="112.146" r="4.13536" transform="rotate(0.340307 479.778 112.146)" fill="#FAFAFA"/>
<circle cx="494.663" cy="112.234" r="4.13536" transform="rotate(0.340307 494.663 112.234)" fill="#FAFAFA"/>
<circle cx="509.549" cy="112.323" r="4.13536" transform="rotate(0.340307 509.549 112.323)" fill="#FAFAFA"/>
<circle cx="524.434" cy="112.411" r="4.13536" transform="rotate(0.340307 524.434 112.411)" fill="#FAFAFA"/>
<circle cx="539.32" cy="112.499" r="4.13536" transform="rotate(0.340307 539.32 112.499)" fill="#FAFAFA"/>
<circle cx="554.204" cy="112.588" r="4.13536" transform="rotate(0.340307 554.204 112.588)" fill="#FAFAFA"/>
<circle cx="569.09" cy="112.676" r="4.13536" transform="rotate(0.340307 569.09 112.676)" fill="#FAFAFA"/>
<circle cx="583.975" cy="112.765" r="4.13536" transform="rotate(0.340307 583.975 112.765)" fill="#FAFAFA"/>
<circle cx="301.067" cy="125.971" r="4.13536" transform="rotate(0.340307 301.067 125.971)" fill="#FAFAFA"/>
<circle cx="315.953" cy="126.059" r="4.13536" transform="rotate(0.340307 315.953 126.059)" fill="#FAFAFA"/>
<circle cx="330.838" cy="126.147" r="4.13536" transform="rotate(0.340307 330.838 126.147)" fill="#FAFAFA"/>
<circle cx="345.724" cy="126.236" r="4.13536" transform="rotate(0.340307 345.724 126.236)" fill="#FAFAFA"/>
<circle cx="360.608" cy="126.324" r="4.13536" transform="rotate(0.340307 360.608 126.324)" fill="#FAFAFA"/>
<circle cx="375.493" cy="126.412" r="4.13536" transform="rotate(0.340307 375.493 126.412)" fill="#FAFAFA"/>
<circle cx="390.378" cy="126.501" r="4.13536" transform="rotate(0.340307 390.378 126.501)" fill="#FAFAFA"/>
<circle cx="405.264" cy="126.589" r="4.13536" transform="rotate(0.340307 405.264 126.589)" fill="#FAFAFA"/>
<circle cx="420.149" cy="126.678" r="4.13536" transform="rotate(0.340307 420.149 126.678)" fill="#FAFAFA"/>
<circle cx="435.034" cy="126.766" r="4.13536" transform="rotate(0.340307 435.034 126.766)" fill="#FAFAFA"/>
<circle cx="449.919" cy="126.854" r="4.13536" transform="rotate(0.340307 449.919 126.854)" fill="#FAFAFA"/>
<circle cx="464.805" cy="126.943" r="4.13536" transform="rotate(0.340307 464.805 126.943)" fill="#FAFAFA"/>
<circle cx="479.69" cy="127.031" r="4.13536" transform="rotate(0.340307 479.69 127.031)" fill="#FAFAFA"/>
<circle cx="494.576" cy="127.12" r="4.13536" transform="rotate(0.340307 494.576 127.12)" fill="#FAFAFA"/>
<circle cx="509.461" cy="127.208" r="4.13536" transform="rotate(0.340307 509.461 127.208)" fill="#FAFAFA"/>
<circle cx="524.346" cy="127.296" r="4.13536" transform="rotate(0.340307 524.346 127.296)" fill="#FAFAFA"/>
<circle cx="539.231" cy="127.385" r="4.13536" transform="rotate(0.340307 539.231 127.385)" fill="#FAFAFA"/>
<circle cx="554.117" cy="127.473" r="4.13536" transform="rotate(0.340307 554.117 127.473)" fill="#FAFAFA"/>
<circle cx="569.002" cy="127.561" r="4.13536" transform="rotate(0.340307 569.002 127.561)" fill="#FAFAFA"/>
<circle cx="583.888" cy="127.65" r="4.13536" transform="rotate(0.340307 583.888 127.65)" fill="#FAFAFA"/>
<circle cx="300.978" cy="140.856" r="4.13536" transform="rotate(0.340307 300.978 140.856)" fill="#FAFAFA"/>
<circle cx="315.864" cy="140.944" r="4.13536" transform="rotate(0.340307 315.864 140.944)" fill="#FAFAFA"/>
<circle cx="330.749" cy="141.032" r="4.13536" transform="rotate(0.340307 330.749 141.032)" fill="#FAFAFA"/>
<circle cx="345.635" cy="141.121" r="4.13536" transform="rotate(0.340307 345.635 141.121)" fill="#FAFAFA"/>
<circle cx="360.519" cy="141.209" r="4.13536" transform="rotate(0.340307 360.519 141.209)" fill="#FAFAFA"/>
<circle cx="375.404" cy="141.298" r="4.13536" transform="rotate(0.340307 375.404 141.298)" fill="#FAFAFA"/>
<circle cx="390.29" cy="141.386" r="4.13536" transform="rotate(0.340307 390.29 141.386)" fill="#FAFAFA"/>
<circle cx="405.175" cy="141.474" r="4.13536" transform="rotate(0.340307 405.175 141.474)" fill="#FAFAFA"/>
<circle cx="420.06" cy="141.563" r="4.13536" transform="rotate(0.340307 420.06 141.563)" fill="#FAFAFA"/>
<circle cx="434.946" cy="141.651" r="4.13536" transform="rotate(0.340307 434.946 141.651)" fill="#FAFAFA"/>
<circle cx="449.831" cy="141.739" r="4.13536" transform="rotate(0.340307 449.831 141.739)" fill="#FAFAFA"/>
<circle cx="464.716" cy="141.828" r="4.13536" transform="rotate(0.340307 464.716 141.828)" fill="#FAFAFA"/>
<circle cx="479.602" cy="141.916" r="4.13536" transform="rotate(0.340307 479.602 141.916)" fill="#FAFAFA"/>
<circle cx="494.486" cy="142.005" r="4.13536" transform="rotate(0.340307 494.486 142.005)" fill="#FAFAFA"/>
<circle cx="509.371" cy="142.093" r="4.13536" transform="rotate(0.340307 509.371 142.093)" fill="#FAFAFA"/>
<circle cx="524.257" cy="142.182" r="4.13536" transform="rotate(0.340307 524.257 142.182)" fill="#FAFAFA"/>
<circle cx="539.143" cy="142.27" r="4.13536" transform="rotate(0.340307 539.143 142.27)" fill="#FAFAFA"/>
<circle cx="554.028" cy="142.358" r="4.13536" transform="rotate(0.340307 554.028 142.358)" fill="#FAFAFA"/>
<circle cx="568.913" cy="142.446" r="4.13536" transform="rotate(0.340307 568.913 142.446)" fill="#FAFAFA"/>
<circle cx="583.798" cy="142.535" r="4.13536" transform="rotate(0.340307 583.798 142.535)" fill="#FAFAFA"/>
<circle cx="300.89" cy="155.741" r="4.13536" transform="rotate(0.340307 300.89 155.741)" fill="#FAFAFA"/>
<circle cx="315.775" cy="155.829" r="4.13536" transform="rotate(0.340307 315.775 155.829)" fill="#FAFAFA"/>
<circle cx="330.661" cy="155.917" r="4.13536" transform="rotate(0.340307 330.661 155.917)" fill="#FAFAFA"/>
<circle cx="345.546" cy="156.006" r="4.13536" transform="rotate(0.340307 345.546 156.006)" fill="#FAFAFA"/>
<circle cx="360.43" cy="156.094" r="4.13536" transform="rotate(0.340307 360.43 156.094)" fill="#FAFAFA"/>
<circle cx="375.315" cy="156.183" r="4.13536" transform="rotate(0.340307 375.315 156.183)" fill="#FAFAFA"/>
<circle cx="390.201" cy="156.271" r="4.13536" transform="rotate(0.340307 390.201 156.271)" fill="#FAFAFA"/>
<circle cx="405.086" cy="156.36" r="4.13536" transform="rotate(0.340307 405.086 156.36)" fill="#FAFAFA"/>
<circle cx="419.972" cy="156.448" r="4.13536" transform="rotate(0.340307 419.972 156.448)" fill="#FAFAFA"/>
<circle cx="434.857" cy="156.536" r="4.13536" transform="rotate(0.340307 434.857 156.536)" fill="#FAFAFA"/>
<circle cx="449.742" cy="156.625" r="4.13536" transform="rotate(0.340307 449.742 156.625)" fill="#FAFAFA"/>
<circle cx="464.627" cy="156.713" r="4.13536" transform="rotate(0.340307 464.627 156.713)" fill="#FAFAFA"/>
<circle cx="479.513" cy="156.801" r="4.13536" transform="rotate(0.340307 479.513 156.801)" fill="#FAFAFA"/>
<circle cx="494.398" cy="156.89" r="4.13536" transform="rotate(0.340307 494.398 156.89)" fill="#FAFAFA"/>
<circle cx="509.284" cy="156.978" r="4.13536" transform="rotate(0.340307 509.284 156.978)" fill="#FAFAFA"/>
<circle cx="524.169" cy="157.067" r="4.13536" transform="rotate(0.340307 524.169 157.067)" fill="#FAFAFA"/>
<circle cx="539.054" cy="157.155" r="4.13536" transform="rotate(0.340307 539.054 157.155)" fill="#FAFAFA"/>
<circle cx="553.939" cy="157.244" r="4.13536" transform="rotate(0.340307 553.939 157.244)" fill="#FAFAFA"/>
<circle cx="568.825" cy="157.332" r="4.13536" transform="rotate(0.340307 568.825 157.332)" fill="#FAFAFA"/>
<circle cx="583.709" cy="157.421" r="4.13536" transform="rotate(0.340307 583.709 157.421)" fill="#FAFAFA"/>
<circle cx="300.801" cy="170.627" r="4.13536" transform="rotate(0.340307 300.801 170.627)" fill="#FAFAFA"/>
<circle cx="315.687" cy="170.715" r="4.13536" transform="rotate(0.340307 315.687 170.715)" fill="#FAFAFA"/>
<circle cx="330.573" cy="170.803" r="4.13536" transform="rotate(0.340307 330.573 170.803)" fill="#FAFAFA"/>
<circle cx="345.459" cy="170.891" r="4.13536" transform="rotate(0.340307 345.459 170.891)" fill="#FAFAFA"/>
<circle cx="360.343" cy="170.98" r="4.13536" transform="rotate(0.340307 360.343 170.98)" fill="#FAFAFA"/>
<circle cx="375.228" cy="171.068" r="4.13536" transform="rotate(0.340307 375.228 171.068)" fill="#FAFAFA"/>
<circle cx="390.113" cy="171.157" r="4.13536" transform="rotate(0.340307 390.113 171.157)" fill="#FAFAFA"/>
<circle cx="404.998" cy="171.245" r="4.13536" transform="rotate(0.340307 404.998 171.245)" fill="#FAFAFA"/>
<circle cx="419.884" cy="171.333" r="4.13536" transform="rotate(0.340307 419.884 171.333)" fill="#FAFAFA"/>
<circle cx="434.769" cy="171.422" r="4.13536" transform="rotate(0.340307 434.769 171.422)" fill="#FAFAFA"/>
<circle cx="449.654" cy="171.51" r="4.13536" transform="rotate(0.340307 449.654 171.51)" fill="#FAFAFA"/>
<circle cx="464.539" cy="171.599" r="4.13536" transform="rotate(0.340307 464.539 171.599)" fill="#FAFAFA"/>
<circle cx="479.425" cy="171.687" r="4.13536" transform="rotate(0.340307 479.425 171.687)" fill="#FAFAFA"/>
<circle cx="494.309" cy="171.775" r="4.13536" transform="rotate(0.340307 494.309 171.775)" fill="#FAFAFA"/>
<circle cx="509.196" cy="171.864" r="4.13536" transform="rotate(0.340307 509.196 171.864)" fill="#FAFAFA"/>
<circle cx="524.08" cy="171.952" r="4.13536" transform="rotate(0.340307 524.08 171.952)" fill="#FAFAFA"/>
<circle cx="538.966" cy="172.041" r="4.13536" transform="rotate(0.340307 538.966 172.041)" fill="#FAFAFA"/>
<circle cx="553.851" cy="172.129" r="4.13536" transform="rotate(0.340307 553.851 172.129)" fill="#FAFAFA"/>
<circle cx="568.737" cy="172.217" r="4.13536" transform="rotate(0.340307 568.737 172.217)" fill="#FAFAFA"/>
<circle cx="583.621" cy="172.306" r="4.13536" transform="rotate(0.340307 583.621 172.306)" fill="#FAFAFA"/>
<circle cx="300.713" cy="185.513" r="4.13536" transform="rotate(0.340307 300.713 185.513)" fill="#FAFAFA"/>
<circle cx="315.599" cy="185.6" r="4.13536" transform="rotate(0.340307 315.599 185.6)" fill="#FAFAFA"/>
<circle cx="330.484" cy="185.688" r="4.13536" transform="rotate(0.340307 330.484 185.688)" fill="#FAFAFA"/>
<circle cx="345.37" cy="185.777" r="4.13536" transform="rotate(0.340307 345.37 185.777)" fill="#FAFAFA"/>
<circle cx="360.254" cy="185.865" r="4.13536" transform="rotate(0.340307 360.254 185.865)" fill="#FAFAFA"/>
<circle cx="375.14" cy="185.953" r="4.13536" transform="rotate(0.340307 375.14 185.953)" fill="#FAFAFA"/>
<circle cx="390.025" cy="186.042" r="4.13536" transform="rotate(0.340307 390.025 186.042)" fill="#FAFAFA"/>
<circle cx="404.911" cy="186.13" r="4.13536" transform="rotate(0.340307 404.911 186.13)" fill="#FAFAFA"/>
<circle cx="419.796" cy="186.219" r="4.13536" transform="rotate(0.340307 419.796 186.219)" fill="#FAFAFA"/>
<circle cx="434.681" cy="186.307" r="4.13536" transform="rotate(0.340307 434.681 186.307)" fill="#FAFAFA"/>
<circle cx="449.566" cy="186.395" r="4.13536" transform="rotate(0.340307 449.566 186.395)" fill="#FAFAFA"/>
<circle cx="464.451" cy="186.484" r="4.13536" transform="rotate(0.340307 464.451 186.484)" fill="#FAFAFA"/>
<circle cx="479.336" cy="186.572" r="4.13536" transform="rotate(0.340307 479.336 186.572)" fill="#FAFAFA"/>
<circle cx="494.222" cy="186.661" r="4.13536" transform="rotate(0.340307 494.222 186.661)" fill="#FAFAFA"/>
<circle cx="509.107" cy="186.749" r="4.13536" transform="rotate(0.340307 509.107 186.749)" fill="#FAFAFA"/>
<circle cx="523.992" cy="186.838" r="4.13536" transform="rotate(0.340307 523.992 186.838)" fill="#FAFAFA"/>
<circle cx="538.878" cy="186.926" r="4.13536" transform="rotate(0.340307 538.878 186.926)" fill="#FAFAFA"/>
<circle cx="553.763" cy="187.014" r="4.13536" transform="rotate(0.340307 553.763 187.014)" fill="#FAFAFA"/>
<circle cx="568.648" cy="187.103" r="4.13536" transform="rotate(0.340307 568.648 187.103)" fill="#FAFAFA"/>
<circle cx="583.534" cy="187.191" r="4.13536" transform="rotate(0.340307 583.534 187.191)" fill="#FAFAFA"/>
<circle cx="300.625" cy="200.397" r="4.13536" transform="rotate(0.340307 300.625 200.397)" fill="#FAFAFA"/>
<circle cx="315.51" cy="200.485" r="4.13536" transform="rotate(0.340307 315.51 200.485)" fill="#FAFAFA"/>
<circle cx="330.396" cy="200.573" r="4.13536" transform="rotate(0.340307 330.396 200.573)" fill="#FAFAFA"/>
<circle cx="345.282" cy="200.662" r="4.13536" transform="rotate(0.340307 345.282 200.662)" fill="#FAFAFA"/>
<circle cx="360.165" cy="200.75" r="4.13536" transform="rotate(0.340307 360.165 200.75)" fill="#FAFAFA"/>
<circle cx="375.051" cy="200.839" r="4.13536" transform="rotate(0.340307 375.051 200.839)" fill="#FAFAFA"/>
<circle cx="389.936" cy="200.927" r="4.13536" transform="rotate(0.340307 389.936 200.927)" fill="#FAFAFA"/>
<circle cx="404.821" cy="201.015" r="4.13536" transform="rotate(0.340307 404.821 201.015)" fill="#FAFAFA"/>
<circle cx="419.706" cy="201.104" r="4.13536" transform="rotate(0.340307 419.706 201.104)" fill="#FAFAFA"/>
<circle cx="434.592" cy="201.192" r="4.13536" transform="rotate(0.340307 434.592 201.192)" fill="#FAFAFA"/>
<circle cx="449.477" cy="201.281" r="4.13536" transform="rotate(0.340307 449.477 201.281)" fill="#FAFAFA"/>
<circle cx="464.363" cy="201.369" r="4.13536" transform="rotate(0.340307 464.363 201.369)" fill="#FAFAFA"/>
<circle cx="479.248" cy="201.457" r="4.13536" transform="rotate(0.340307 479.248 201.457)" fill="#FAFAFA"/>
<circle cx="494.132" cy="201.546" r="4.13536" transform="rotate(0.340307 494.132 201.546)" fill="#FAFAFA"/>
<circle cx="509.018" cy="201.634" r="4.13536" transform="rotate(0.340307 509.018 201.634)" fill="#FAFAFA"/>
<circle cx="523.903" cy="201.723" r="4.13536" transform="rotate(0.340307 523.903 201.723)" fill="#FAFAFA"/>
<circle cx="538.789" cy="201.811" r="4.13536" transform="rotate(0.340307 538.789 201.811)" fill="#FAFAFA"/>
<circle cx="553.674" cy="201.9" r="4.13536" transform="rotate(0.340307 553.674 201.9)" fill="#FAFAFA"/>
<circle cx="568.559" cy="201.988" r="4.13536" transform="rotate(0.340307 568.559 201.988)" fill="#FAFAFA"/>
<circle cx="583.445" cy="202.076" r="4.13536" transform="rotate(0.340307 583.445 202.076)" fill="#FAFAFA"/>
<circle cx="300.536" cy="215.283" r="4.13536" transform="rotate(0.340307 300.536 215.283)" fill="#FAFAFA"/>
<circle cx="315.422" cy="215.37" r="4.13536" transform="rotate(0.340307 315.422 215.37)" fill="#FAFAFA"/>
<circle cx="330.307" cy="215.459" r="4.13536" transform="rotate(0.340307 330.307 215.459)" fill="#FAFAFA"/>
<circle cx="345.193" cy="215.547" r="4.13536" transform="rotate(0.340307 345.193 215.547)" fill="#FAFAFA"/>
<circle cx="360.078" cy="215.635" r="4.13536" transform="rotate(0.340307 360.078 215.635)" fill="#FAFAFA"/>
<circle cx="374.963" cy="215.724" r="4.13536" transform="rotate(0.340307 374.963 215.724)" fill="#FAFAFA"/>
<circle cx="389.848" cy="215.812" r="4.13536" transform="rotate(0.340307 389.848 215.812)" fill="#FAFAFA"/>
<circle cx="404.734" cy="215.901" r="4.13536" transform="rotate(0.340307 404.734 215.901)" fill="#FAFAFA"/>
<circle cx="419.619" cy="215.989" r="4.13536" transform="rotate(0.340307 419.619 215.989)" fill="#FAFAFA"/>
<circle cx="434.504" cy="216.077" r="4.13536" transform="rotate(0.340307 434.504 216.077)" fill="#FAFAFA"/>
<circle cx="449.389" cy="216.166" r="4.13536" transform="rotate(0.340307 449.389 216.166)" fill="#FAFAFA"/>
<circle cx="464.274" cy="216.255" r="4.13536" transform="rotate(0.340307 464.274 216.255)" fill="#FAFAFA"/>
<circle cx="479.16" cy="216.343" r="4.13536" transform="rotate(0.340307 479.16 216.343)" fill="#FAFAFA"/>
<circle cx="494.045" cy="216.431" r="4.13536" transform="rotate(0.340307 494.045 216.431)" fill="#FAFAFA"/>
<circle cx="508.93" cy="216.519" r="4.13536" transform="rotate(0.340307 508.93 216.519)" fill="#FAFAFA"/>
<circle cx="523.815" cy="216.608" r="4.13536" transform="rotate(0.340307 523.815 216.608)" fill="#FAFAFA"/>
<circle cx="538.701" cy="216.697" r="4.13536" transform="rotate(0.340307 538.701 216.697)" fill="#FAFAFA"/>
<circle cx="553.586" cy="216.785" r="4.13536" transform="rotate(0.340307 553.586 216.785)" fill="#FAFAFA"/>
<circle cx="568.471" cy="216.873" r="4.13536" transform="rotate(0.340307 568.471 216.873)" fill="#FAFAFA"/>
<circle cx="583.356" cy="216.962" r="4.13536" transform="rotate(0.340307 583.356 216.962)" fill="#FAFAFA"/>
<circle cx="300.448" cy="230.169" r="4.13536" transform="rotate(0.340307 300.448 230.169)" fill="#FAFAFA"/>
<circle cx="315.333" cy="230.255" r="4.13536" transform="rotate(0.340307 315.333 230.255)" fill="#FAFAFA"/>
<circle cx="330.219" cy="230.344" r="4.13536" transform="rotate(0.340307 330.219 230.344)" fill="#FAFAFA"/>
<circle cx="345.105" cy="230.432" r="4.13536" transform="rotate(0.340307 345.105 230.432)" fill="#FAFAFA"/>
<circle cx="359.989" cy="230.52" r="4.13536" transform="rotate(0.340307 359.989 230.52)" fill="#FAFAFA"/>
<circle cx="374.874" cy="230.609" r="4.13536" transform="rotate(0.340307 374.874 230.609)" fill="#FAFAFA"/>
<circle cx="389.76" cy="230.698" r="4.13536" transform="rotate(0.340307 389.76 230.698)" fill="#FAFAFA"/>
<circle cx="404.645" cy="230.786" r="4.13536" transform="rotate(0.340307 404.645 230.786)" fill="#FAFAFA"/>
<circle cx="419.53" cy="230.874" r="4.13536" transform="rotate(0.340307 419.53 230.874)" fill="#FAFAFA"/>
<circle cx="434.415" cy="230.962" r="4.13536" transform="rotate(0.340307 434.415 230.962)" fill="#FAFAFA"/>
<circle cx="449.301" cy="231.051" r="4.13536" transform="rotate(0.340307 449.301 231.051)" fill="#FAFAFA"/>
<circle cx="464.186" cy="231.14" r="4.13536" transform="rotate(0.340307 464.186 231.14)" fill="#FAFAFA"/>
<circle cx="479.072" cy="231.228" r="4.13536" transform="rotate(0.340307 479.072 231.228)" fill="#FAFAFA"/>
<circle cx="493.956" cy="231.316" r="4.13536" transform="rotate(0.340307 493.956 231.316)" fill="#FAFAFA"/>
<circle cx="508.842" cy="231.404" r="4.13536" transform="rotate(0.340307 508.842 231.404)" fill="#FAFAFA"/>
<circle cx="523.727" cy="231.493" r="4.13536" transform="rotate(0.340307 523.727 231.493)" fill="#FAFAFA"/>
<circle cx="538.613" cy="231.582" r="4.13536" transform="rotate(0.340307 538.613 231.582)" fill="#FAFAFA"/>
<circle cx="553.497" cy="231.67" r="4.13536" transform="rotate(0.340307 553.497 231.67)" fill="#FAFAFA"/>
<circle cx="568.382" cy="231.758" r="4.13536" transform="rotate(0.340307 568.382 231.758)" fill="#FAFAFA"/>
<circle cx="583.268" cy="231.847" r="4.13536" transform="rotate(0.340307 583.268 231.847)" fill="#FAFAFA"/>
<circle cx="300.359" cy="245.052" r="4.13536" transform="rotate(0.340307 300.359 245.052)" fill="#FAFAFA"/>
<circle cx="315.245" cy="245.141" r="4.13536" transform="rotate(0.340307 315.245 245.141)" fill="#FAFAFA"/>
<circle cx="330.13" cy="245.229" r="4.13536" transform="rotate(0.340307 330.13 245.229)" fill="#FAFAFA"/>
<circle cx="345.016" cy="245.318" r="4.13536" transform="rotate(0.340307 345.016 245.318)" fill="#FAFAFA"/>
<circle cx="359.901" cy="245.406" r="4.13536" transform="rotate(0.340307 359.901 245.406)" fill="#FAFAFA"/>
<circle cx="374.786" cy="245.494" r="4.13536" transform="rotate(0.340307 374.786 245.494)" fill="#FAFAFA"/>
<circle cx="389.671" cy="245.583" r="4.13536" transform="rotate(0.340307 389.671 245.583)" fill="#FAFAFA"/>
<circle cx="404.556" cy="245.671" r="4.13536" transform="rotate(0.340307 404.556 245.671)" fill="#FAFAFA"/>
<circle cx="419.442" cy="245.76" r="4.13536" transform="rotate(0.340307 419.442 245.76)" fill="#FAFAFA"/>
<circle cx="434.327" cy="245.848" r="4.13536" transform="rotate(0.340307 434.327 245.848)" fill="#FAFAFA"/>
<circle cx="449.211" cy="245.936" r="4.13536" transform="rotate(0.340307 449.211 245.936)" fill="#FAFAFA"/>
<circle cx="464.097" cy="246.025" r="4.13536" transform="rotate(0.340307 464.097 246.025)" fill="#FAFAFA"/>
<circle cx="478.983" cy="246.113" r="4.13536" transform="rotate(0.340307 478.983 246.113)" fill="#FAFAFA"/>
<circle cx="493.868" cy="246.202" r="4.13536" transform="rotate(0.340307 493.868 246.202)" fill="#FAFAFA"/>
<circle cx="508.753" cy="246.29" r="4.13536" transform="rotate(0.340307 508.753 246.29)" fill="#FAFAFA"/>
<circle cx="523.638" cy="246.379" r="4.13536" transform="rotate(0.340307 523.638 246.379)" fill="#FAFAFA"/>
<circle cx="538.524" cy="246.467" r="4.13536" transform="rotate(0.340307 538.524 246.467)" fill="#FAFAFA"/>
<circle cx="553.409" cy="246.555" r="4.13536" transform="rotate(0.340307 553.409 246.555)" fill="#FAFAFA"/>
<circle cx="568.294" cy="246.644" r="4.13536" transform="rotate(0.340307 568.294 246.644)" fill="#FAFAFA"/>
<circle cx="583.18" cy="246.732" r="4.13536" transform="rotate(0.340307 583.18 246.732)" fill="#FAFAFA"/>
<circle cx="300.271" cy="259.938" r="4.13536" transform="rotate(0.340307 300.271 259.938)" fill="#FAFAFA"/>
<circle cx="315.157" cy="260.026" r="4.13536" transform="rotate(0.340307 315.157 260.026)" fill="#FAFAFA"/>
<circle cx="330.042" cy="260.115" r="4.13536" transform="rotate(0.340307 330.042 260.115)" fill="#FAFAFA"/>
<circle cx="344.927" cy="260.204" r="4.13536" transform="rotate(0.340307 344.927 260.204)" fill="#FAFAFA"/>
<circle cx="359.813" cy="260.291" r="4.13536" transform="rotate(0.340307 359.813 260.291)" fill="#FAFAFA"/>
<circle cx="374.697" cy="260.38" r="4.13536" transform="rotate(0.340307 374.697 260.38)" fill="#FAFAFA"/>
<circle cx="389.583" cy="260.468" r="4.13536" transform="rotate(0.340307 389.583 260.468)" fill="#FAFAFA"/>
<circle cx="404.468" cy="260.557" r="4.13536" transform="rotate(0.340307 404.468 260.557)" fill="#FAFAFA"/>
<circle cx="419.353" cy="260.645" r="4.13536" transform="rotate(0.340307 419.353 260.645)" fill="#FAFAFA"/>
<circle cx="434.239" cy="260.734" r="4.13536" transform="rotate(0.340307 434.239 260.734)" fill="#FAFAFA"/>
<circle cx="449.124" cy="260.822" r="4.13536" transform="rotate(0.340307 449.124 260.822)" fill="#FAFAFA"/>
<circle cx="464.009" cy="260.911" r="4.13536" transform="rotate(0.340307 464.009 260.911)" fill="#FAFAFA"/>
<circle cx="478.894" cy="260.998" r="4.13536" transform="rotate(0.340307 478.894 260.998)" fill="#FAFAFA"/>
<circle cx="493.78" cy="261.087" r="4.13536" transform="rotate(0.340307 493.78 261.087)" fill="#FAFAFA"/>
<circle cx="508.665" cy="261.175" r="4.13536" transform="rotate(0.340307 508.665 261.175)" fill="#FAFAFA"/>
<circle cx="523.551" cy="261.264" r="4.13536" transform="rotate(0.340307 523.551 261.264)" fill="#FAFAFA"/>
<circle cx="538.436" cy="261.352" r="4.13536" transform="rotate(0.340307 538.436 261.352)" fill="#FAFAFA"/>
<circle cx="553.321" cy="261.441" r="4.13536" transform="rotate(0.340307 553.321 261.441)" fill="#FAFAFA"/>
<circle cx="568.205" cy="261.529" r="4.13536" transform="rotate(0.340307 568.205 261.529)" fill="#FAFAFA"/>
<circle cx="583.092" cy="261.618" r="4.13536" transform="rotate(0.340307 583.092 261.618)" fill="#FAFAFA"/>
<circle cx="300.182" cy="274.824" r="4.13536" transform="rotate(0.340307 300.182 274.824)" fill="#FAFAFA"/>
<circle cx="315.068" cy="274.911" r="4.13536" transform="rotate(0.340307 315.068 274.911)" fill="#FAFAFA"/>
<circle cx="329.953" cy="275" r="4.13536" transform="rotate(0.340307 329.953 275)" fill="#FAFAFA"/>
<circle cx="344.839" cy="275.088" r="4.13536" transform="rotate(0.340307 344.839 275.088)" fill="#FAFAFA"/>
<circle cx="359.724" cy="275.176" r="4.13536" transform="rotate(0.340307 359.724 275.176)" fill="#FAFAFA"/>
<circle cx="374.609" cy="275.265" r="4.13536" transform="rotate(0.340307 374.609 275.265)" fill="#FAFAFA"/>
<circle cx="389.495" cy="275.354" r="4.13536" transform="rotate(0.340307 389.495 275.354)" fill="#FAFAFA"/>
<circle cx="404.38" cy="275.442" r="4.13536" transform="rotate(0.340307 404.38 275.442)" fill="#FAFAFA"/>
<circle cx="419.265" cy="275.53" r="4.13536" transform="rotate(0.340307 419.265 275.53)" fill="#FAFAFA"/>
<circle cx="434.15" cy="275.619" r="4.13536" transform="rotate(0.340307 434.15 275.619)" fill="#FAFAFA"/>
<circle cx="449.036" cy="275.707" r="4.13536" transform="rotate(0.340307 449.036 275.707)" fill="#FAFAFA"/>
<circle cx="463.921" cy="275.796" r="4.13536" transform="rotate(0.340307 463.921 275.796)" fill="#FAFAFA"/>
<circle cx="478.806" cy="275.884" r="4.13536" transform="rotate(0.340307 478.806 275.884)" fill="#FAFAFA"/>
<circle cx="493.691" cy="275.972" r="4.13536" transform="rotate(0.340307 493.691 275.972)" fill="#FAFAFA"/>
<circle cx="508.576" cy="276.061" r="4.13536" transform="rotate(0.340307 508.576 276.061)" fill="#FAFAFA"/>
<circle cx="523.461" cy="276.149" r="4.13536" transform="rotate(0.340307 523.461 276.149)" fill="#FAFAFA"/>
<circle cx="538.347" cy="276.238" r="4.13536" transform="rotate(0.340307 538.347 276.238)" fill="#FAFAFA"/>
<circle cx="553.232" cy="276.326" r="4.13536" transform="rotate(0.340307 553.232 276.326)" fill="#FAFAFA"/>
<circle cx="568.118" cy="276.414" r="4.13536" transform="rotate(0.340307 568.118 276.414)" fill="#FAFAFA"/>
<circle cx="583.003" cy="276.503" r="4.13536" transform="rotate(0.340307 583.003 276.503)" fill="#FAFAFA"/>
</svg>
