<svg width="166" height="46" viewBox="0 0 166 46" fill="none" xmlns="http://www.w3.org/2000/svg">
<path d="M33.4516 7.14666L34.772 6.28232L36.4069 8.20074L38.0417 16.1485L36.889 20.407L32.2359 26.4363L30.1609 28.3547L28.9243 28.9661L30.4544 27.2796L31.4814 25.572L32.2359 23.8644L33.4725 20.1118L34.3738 10.2457L33.4516 7.14666Z" fill="url(#paint0_linear)"/>
<path d="M15.1537 15.0944L15.7406 12.9862L7.71306 21.3767L6.26685 32.8662L10.7732 37.6938L13.6446 40.3501L15.7406 39.8652L11.2971 32.571L10.0186 27.1741L11.0037 23.5059L12.7434 18.0458L13.456 17.2447L13.959 16.3382L15.1537 15.0944Z" fill="url(#paint1_linear)"/>
<path d="M54.998 33.1191C53.1535 33.1191 51.5606 32.7186 50.2192 31.8964C48.8778 31.0742 47.8298 29.9147 47.0962 28.4179C46.3626 26.9211 45.9854 25.1292 45.9854 23.0632C45.9854 20.9972 46.3626 19.2053 47.1381 17.7085C47.9136 16.2117 49.0035 15.0522 50.3869 14.23C51.7702 13.4078 53.3841 13.0073 55.1866 13.0073C57.1149 13.0073 58.6659 13.3657 59.8816 14.1035C61.0972 14.8414 62.0614 15.9587 62.8159 17.4766L60.6571 18.6572C60.2169 17.5398 59.5462 16.6755 58.603 16.1063C57.6598 15.516 56.528 15.2419 55.1657 15.2419C53.8452 15.2419 52.6924 15.5582 51.6864 16.1695C50.6803 16.802 49.8838 17.6874 49.297 18.868C48.7101 20.0485 48.4376 21.4399 48.4376 23.0843C48.4376 24.7287 48.6891 26.12 49.1922 27.3006C49.6952 28.4812 50.4288 29.3666 51.4348 29.9991C52.4199 30.6104 53.6356 30.9266 55.0609 30.9266C55.8573 30.9266 56.6119 30.8212 57.3035 30.6104C57.9952 30.3996 58.603 30.0834 59.127 29.6828C59.651 29.2612 60.0492 28.7552 60.3427 28.1228C60.6361 27.4903 60.7828 26.7525 60.7828 25.9092V25.2346H54.5997V22.9789H62.9207V32.8451H61.0762L60.9505 29.198L61.4535 29.2823C60.9505 30.505 60.1331 31.4537 59.0432 32.1283C57.9952 32.7818 56.6328 33.1191 54.998 33.1191Z" fill="#343434"/>
<path d="M68.8104 11.2154V29.0715C68.8104 29.8304 68.9571 30.3364 69.2296 30.6315C69.502 30.9267 69.9422 31.0532 70.55 31.0532C70.9482 31.0532 71.2626 31.0321 71.5142 30.9688C71.7657 30.9056 72.122 30.8002 72.5412 30.6526L72.1639 32.7186C71.8495 32.8662 71.5142 32.9505 71.1369 33.0348C70.7596 33.0981 70.3823 33.1402 69.9841 33.1402C68.7894 33.1402 67.9091 32.824 67.3222 32.1705C66.7354 31.517 66.4629 30.5261 66.4629 29.1769V11.2154H68.8104Z" fill="#343434"/>
<path d="M80.1914 17.7296C81.5747 17.7296 82.8114 18.0458 83.8803 18.6572C84.9492 19.2686 85.7876 20.154 86.3955 21.3135C87.0033 22.473 87.3177 23.8433 87.3177 25.4455C87.3177 27.0477 87.0033 28.418 86.3955 29.5775C85.7876 30.7369 84.9492 31.6224 83.8803 32.2337C82.8114 32.8451 81.5747 33.1613 80.1914 33.1613C78.8081 33.1613 77.5924 32.8451 76.5025 32.2337C75.4336 31.6224 74.5742 30.7369 73.9664 29.5775C73.3586 28.418 73.0442 27.0477 73.0442 25.4455C73.0442 23.8433 73.3586 22.473 73.9664 21.3135C74.5742 20.154 75.4126 19.2686 76.5025 18.6572C77.5924 18.0458 78.829 17.7296 80.1914 17.7296ZM80.1914 19.7745C79.1854 19.7745 78.347 20.0064 77.6343 20.4491C76.9217 20.9129 76.3768 21.5454 75.9995 22.3886C75.6222 23.2319 75.4336 24.2438 75.4336 25.4244C75.4336 26.5839 75.6222 27.5958 75.9995 28.4391C76.3768 29.2823 76.9217 29.9358 77.6343 30.3996C78.347 30.8634 79.1854 31.0742 80.1914 31.0742C81.1975 31.0742 82.0359 30.8424 82.7485 30.3996C83.4611 29.9358 84.0061 29.3034 84.3833 28.4391C84.7606 27.5958 84.9492 26.5839 84.9492 25.4244C84.9492 24.2438 84.7606 23.2319 84.3833 22.3886C84.0061 21.5454 83.4611 20.9129 82.7485 20.4491C82.0568 20.0064 81.1975 19.7745 80.1914 19.7745Z" fill="#343434"/>
<path d="M97.504 33.1191C96.6866 33.1191 95.9111 32.9716 95.1985 32.6764C94.4858 32.3813 93.878 31.9597 93.375 31.4326C92.8719 30.9056 92.4737 30.2942 92.2222 29.6196L92.5366 29.198L92.327 32.8029H90.2729V11.2154H92.6204V21.3767L92.327 20.934C92.7252 20.0064 93.375 19.2475 94.3182 18.6361C95.2404 18.0247 96.3093 17.7296 97.504 17.7296C98.7197 17.7296 99.8306 18.0458 100.858 18.6572C101.885 19.2686 102.702 20.154 103.31 21.2924C103.918 22.4308 104.232 23.8222 104.232 25.4455C104.232 27.0477 103.918 28.418 103.31 29.5774C102.702 30.7369 101.864 31.6224 100.858 32.2337C99.8515 32.824 98.7197 33.1191 97.504 33.1191ZM97.2735 31.0532C98.7197 31.0532 99.8515 30.5472 100.669 29.5142C101.486 28.4812 101.885 27.132 101.885 25.4244C101.885 23.7168 101.486 22.3675 100.669 21.3345C99.8725 20.3015 98.7407 19.7956 97.2735 19.7956C96.3513 19.7956 95.5338 20.0275 94.8422 20.5124C94.1505 20.9762 93.6055 21.6508 93.2073 22.494C92.8091 23.3373 92.6204 24.3492 92.6204 25.4876C92.6204 26.6049 92.8091 27.5958 93.1863 28.439C93.5636 29.2823 94.1086 29.9147 94.8002 30.3785C95.5338 30.8213 96.3513 31.0532 97.2735 31.0532Z" fill="#343434"/>
<path d="M115.885 23.2741C115.885 22.1778 115.592 21.3135 115.005 20.7232C114.418 20.1118 113.58 19.8167 112.511 19.8167C111.484 19.8167 110.625 20.0486 109.912 20.4913C109.199 20.934 108.675 21.6508 108.361 22.6416L106.454 21.461C106.852 20.3648 107.565 19.4583 108.633 18.7837C109.702 18.1091 111.002 17.7718 112.574 17.7718C113.643 17.7718 114.586 17.9615 115.466 18.3199C116.326 18.6783 117.017 19.2475 117.52 19.9853C118.023 20.7232 118.275 21.6719 118.275 22.8524V30.0202C118.275 30.7369 118.652 31.0953 119.386 31.0953C119.763 31.0953 120.119 31.0532 120.476 30.9477L120.35 32.8029C119.952 32.9927 119.449 33.0981 118.82 33.0981C118.254 33.0981 117.73 32.9927 117.29 32.7818C116.829 32.571 116.493 32.2337 116.221 31.791C115.969 31.3483 115.844 30.7791 115.844 30.1256V29.8304L116.43 29.9148C116.2 30.6948 115.802 31.3061 115.215 31.791C114.649 32.2759 113.999 32.6343 113.307 32.8662C112.595 33.0981 111.903 33.2035 111.211 33.2035C110.352 33.2035 109.535 33.0559 108.801 32.7608C108.047 32.4656 107.46 32.0229 107.02 31.4115C106.579 30.8002 106.349 30.0623 106.349 29.1769C106.349 28.0807 106.726 27.1531 107.46 26.4363C108.193 25.7195 109.22 25.2346 110.541 24.9606L116.368 23.8011V25.7617L111.631 26.7314C110.667 26.9212 109.954 27.1952 109.472 27.5536C109.011 27.912 108.759 28.3969 108.759 29.0293C108.759 29.6407 108.99 30.1466 109.472 30.5261C109.954 30.9056 110.625 31.0953 111.526 31.0953C112.092 31.0953 112.637 31.0321 113.161 30.8634C113.685 30.7158 114.146 30.484 114.565 30.1888C114.984 29.8726 115.299 29.4931 115.529 29.0293C115.76 28.5655 115.885 28.0174 115.885 27.385V23.2741Z" fill="#343434"/>
<path d="M124.71 11.2154V29.0715C124.71 29.8304 124.856 30.3364 125.129 30.6315C125.401 30.9267 125.841 31.0532 126.449 31.0532C126.847 31.0532 127.162 31.0321 127.413 30.9688C127.665 30.9056 128.021 30.8002 128.44 30.6526L128.063 32.7186C127.749 32.8662 127.413 32.9505 127.036 33.0348C126.659 33.0981 126.282 33.1402 125.883 33.1402C124.689 33.1402 123.808 32.824 123.221 32.1705C122.635 31.517 122.362 30.5261 122.362 29.1769V11.2154H124.71Z" fill="#343434"/>
<path d="M141.372 18.0247L134.456 35.3116C134.078 36.2814 133.68 37.0403 133.24 37.6095C132.8 38.1787 132.318 38.5793 131.773 38.8323C131.228 39.0852 130.62 39.2117 129.908 39.2117C129.237 39.2117 128.629 39.1274 128.063 38.9377C127.497 38.7479 127.015 38.495 126.575 38.1787L127.225 36.1127C127.623 36.4711 128.042 36.7241 128.482 36.8928C128.922 37.0614 129.363 37.1457 129.782 37.1457C130.285 37.1457 130.767 36.9771 131.228 36.6819C131.689 36.3657 132.087 35.7333 132.465 34.7635L133.219 32.8451L131.752 29.3245L127.078 18.0669H129.74L133.429 27.7223L134.351 30.3575L135.42 27.4271L138.857 18.0669H141.372V18.0247Z" fill="#343434"/>
<path d="M142.986 31.2218C143.259 31.2218 143.468 31.3061 143.636 31.4748C143.783 31.6434 143.867 31.8542 143.867 32.1072C143.867 32.3602 143.783 32.571 143.636 32.7397C143.468 32.9083 143.259 32.9927 142.986 32.9927C142.735 32.9927 142.525 32.9083 142.357 32.7397C142.19 32.571 142.106 32.3602 142.106 32.1072C142.106 31.8332 142.19 31.6224 142.357 31.4537C142.525 31.3061 142.735 31.2218 142.986 31.2218Z" fill="#343434"/>
<path d="M147.199 15.1155C146.948 15.1155 146.738 15.0311 146.591 14.8836C146.424 14.736 146.361 14.5252 146.361 14.2511C146.361 13.9982 146.445 13.7873 146.591 13.6398C146.738 13.4922 146.969 13.4079 147.241 13.4079C147.493 13.4079 147.702 13.4922 147.849 13.6398C147.996 13.8084 148.079 13.9982 148.079 14.2511C148.079 14.5041 147.996 14.7149 147.849 14.8836C147.681 15.0522 147.472 15.1155 147.199 15.1155ZM147.639 18.0247V32.824H146.822V18.0247H147.639Z" fill="#343434"/>
<path d="M157.134 17.7296C158.518 17.7296 159.712 18.0458 160.76 18.6572C161.808 19.2686 162.605 20.154 163.212 21.3135C163.799 22.473 164.093 23.8433 164.093 25.4455C164.093 27.0477 163.799 28.418 163.212 29.5775C162.626 30.7369 161.808 31.6224 160.76 32.2337C159.712 32.8451 158.518 33.1613 157.134 33.1613C155.793 33.1613 154.619 32.8451 153.571 32.2337C152.523 31.6224 151.706 30.7369 151.119 29.5775C150.511 28.418 150.218 27.0477 150.218 25.4455C150.218 23.8433 150.511 22.473 151.119 21.3135C151.727 20.154 152.544 19.2686 153.571 18.6572C154.619 18.0458 155.814 17.7296 157.134 17.7296ZM157.176 18.4464C155.96 18.4464 154.892 18.7204 153.99 19.2897C153.068 19.8589 152.355 20.66 151.831 21.693C151.307 22.7259 151.056 23.9698 151.056 25.4455C151.056 26.879 151.307 28.1228 151.831 29.1769C152.355 30.231 153.068 31.0321 153.99 31.5802C154.912 32.1494 155.96 32.4235 157.176 32.4235C158.371 32.4235 159.44 32.1494 160.362 31.5802C161.284 31.011 161.997 30.2099 162.521 29.1769C163.024 28.1228 163.296 26.879 163.296 25.4455C163.296 23.9908 163.045 22.747 162.521 21.693C162.018 20.66 161.284 19.8589 160.362 19.2897C159.419 18.7204 158.371 18.4464 157.176 18.4464Z" fill="#343434"/>
<path d="M25.508 1.83411L23.8102 1.64438C17.7948 0.927604 11.8423 3.03576 7.50366 7.42073C-0.293311 15.2631 -0.125634 28.1861 7.85997 36.2392C9.59962 37.989 11.5489 39.3593 13.6448 40.3712C1.27866 27.9331 15.1539 15.1155 15.1539 15.1155L26.2415 3.96335C26.9751 3.2255 26.535 1.9606 25.508 1.83411Z" fill="url(#paint2_linear)"/>
<path d="M36.26 7.67368C35.7779 7.18881 35.3377 6.78826 34.9186 6.42987C39.9279 18.615 30.8734 27.3428 28.484 29.3666C28.463 29.3877 28.442 29.4088 28.4211 29.4299C28.4001 29.451 28.3792 29.472 28.3582 29.4931C28.2744 29.5774 28.1696 29.6407 28.0857 29.7039C28.0648 29.725 28.0438 29.7461 28.0228 29.7672C27.96 29.8093 27.939 29.8304 27.939 29.8304C25.0675 31.9807 21.1062 32.2126 17.7107 30.3153C17.5221 30.2099 15.8663 29.1136 14.441 27.3006C14.2105 27.0055 14.0009 26.7103 13.7913 26.373L13.7494 26.2676C11.6744 22.5362 12.2403 18.0458 15.1746 15.1155C15.1746 15.1155 1.29937 27.9331 13.6655 40.3712C21.2319 44.0183 30.4751 42.8167 36.5953 36.6609C40.41 32.824 42.485 27.7012 42.4221 22.22C42.3382 16.7598 40.1585 11.5949 36.26 7.67368Z" fill="url(#paint3_linear)"/>
<path d="M34.9397 6.42988C34.8768 6.38772 34.8349 6.34555 34.772 6.28231C34.3109 5.88176 33.8498 5.56553 33.4097 5.29147C32.5922 4.78552 31.5442 4.89092 30.8526 5.58662L18.9475 17.561C17.648 18.868 17.166 20.681 17.4804 22.3465C17.669 23.3584 18.172 24.3492 18.9475 25.1292C20.7501 26.9423 23.5167 27.1952 25.5708 25.8671C25.8642 25.6774 26.1576 25.4455 26.4092 25.1925L30.8735 20.7021C31.0831 20.4913 31.4604 20.6178 31.5023 20.9129C31.9006 23.8011 30.9993 26.8368 28.9243 28.9239C28.7776 29.0715 28.6309 29.198 28.4841 29.3456C30.8735 27.3428 39.9281 18.615 34.9397 6.42988Z" fill="url(#paint4_linear)"/>
<defs>
<linearGradient id="paint0_linear" x1="28.9277" y1="17.6256" x2="38.0356" y2="17.6256" gradientUnits="userSpaceOnUse">
<stop stop-color="#2A263F"/>
<stop offset="1" stop-color="#DC0205"/>
</linearGradient>
<linearGradient id="paint1_linear" x1="6.27548" y1="26.6752" x2="15.7443" y2="26.6752" gradientUnits="userSpaceOnUse">
<stop stop-color="#2A263F"/>
<stop offset="1" stop-color="#DC0205"/>
</linearGradient>
<linearGradient id="paint2_linear" x1="21.8612" y1="7.61989" x2="5.50945" y2="30.5657" gradientUnits="userSpaceOnUse">
<stop stop-color="#2A263F"/>
<stop offset="1" stop-color="#DC0205"/>
</linearGradient>
<linearGradient id="paint3_linear" x1="14.9174" y1="30.3439" x2="40.6377" y2="20.7431" gradientUnits="userSpaceOnUse">
<stop stop-color="#2A263F"/>
<stop offset="1" stop-color="#DC0205"/>
</linearGradient>
<linearGradient id="paint4_linear" x1="40.5197" y1="13.3947" x2="14.8012" y2="22.7179" gradientUnits="userSpaceOnUse">
<stop stop-color="#2A263F"/>
<stop offset="1" stop-color="#DC0205"/>
</linearGradient>
</defs>
</svg>
