<svg width="78" height="78" viewBox="0 0 78 78" fill="none" xmlns="http://www.w3.org/2000/svg">
<circle cx="39" cy="39" r="39" fill="#D60707"/>
<circle cx="39" cy="39" r="39" fill="white" fill-opacity="0.85"/>
<path d="M26.5555 60.3333H56.6666C57.2189 60.3333 57.6666 59.8856 57.6666 59.3333V57.0666C57.6666 56.5143 57.2189 56.0666 56.6666 56.0666H26.5804C25.6221 56.041 24.4814 55.6506 24.4814 53.9333C24.4814 52.216 25.6221 51.8256 26.5804 51.8H53.5184H55.5925H56.6666C57.2189 51.8 57.6666 51.3522 57.6666 50.8V49.6666V45.4V21.9333C57.6666 19.5802 55.8061 17.6666 53.5184 17.6666H26.5555C24.0541 17.6666 20.3333 19.3712 20.3333 24.0666V30.4666V43.2666V49.6666V53.9333C20.3333 58.6288 24.0541 60.3333 26.5555 60.3333ZM24.4814 30.4666V24.0666C24.4814 22.3493 25.6221 21.9589 26.5555 21.9333H53.5184V45.4V47.5333H24.4814V43.2666V30.4666Z" fill="#D60707"/>
</svg>
